#VRML V2.0 utf8
Transform { translation 0.00000 0.39370 0.78740 children [ Shape { appearance Appearance { material Material { diffuseColor 0.3 0.3 0.33 specularColor 0.3 0.3 0.3 shininess 0.4 transparency 0.0 } } geometry Box { size 14.96063 5.51181 1.57480 } } ] }
Shape { appearance Appearance { material Material { diffuseColor 0.18 0.49 0.2 specularColor 0.3 0.3 0.3 shininess 0.4 transparency 0.0 } } geometry IndexedFaceSet { solid FALSE coord Coordinate { point [ -5.51181 1.57480 0.00000, -5.52523 1.67670 0.00000, -5.56456 1.77165 0.00000, -5.62712 1.85319 0.00000, -5.70866 1.91576 0.00000, -5.80361 1.95509 0.00000, -5.90551 1.96850 0.00000, -6.00741 1.95509 0.00000, -6.10236 1.91576 0.00000, -6.18390 1.85319 0.00000, -6.24647 1.77165 0.00000, -6.28580 1.67670 0.00000, -6.29921 1.57480 0.00000, -6.28580 1.47291 0.00000, -6.24647 1.37795 0.00000, -6.18390 1.29641 0.00000, -6.10236 1.23385 0.00000, -6.00741 1.19452 0.00000, -5.90551 1.18110 0.00000, -5.80361 1.19452 0.00000, -5.70866 1.23385 0.00000, -5.62712 1.29641 0.00000, -5.56456 1.37795 0.00000, -5.52523 1.47291 0.00000, -5.51181 1.57480 4.92126, -5.52523 1.67670 4.92126, -5.56456 1.77165 4.92126, -5.62712 1.85319 4.92126, -5.70866 1.91576 4.92126, -5.80361 1.95509 4.92126, -5.90551 1.96850 4.92126, -6.00741 1.95509 4.92126, -6.10236 1.91576 4.92126, -6.18390 1.85319 4.92126, -6.24647 1.77165 4.92126, -6.28580 1.67670 4.92126, -6.29921 1.57480 4.92126, -6.28580 1.47291 4.92126, -6.24647 1.37795 4.92126, -6.18390 1.29641 4.92126, -6.10236 1.23385 4.92126, -6.00741 1.19452 4.92126, -5.90551 1.18110 4.92126, -5.80361 1.19452 4.92126, -5.70866 1.23385 4.92126, -5.62712 1.29641 4.92126, -5.56456 1.37795 4.92126, -5.52523 1.47291 4.92126 ] } coordIndex [ 0 1 25 24 -1 1 2 26 25 -1 2 3 27 26 -1 3 4 28 27 -1 4 5 29 28 -1 5 6 30 29 -1 6 7 31 30 -1 7 8 32 31 -1 8 9 33 32 -1 9 10 34 33 -1 10 11 35 34 -1 11 12 36 35 -1 12 13 37 36 -1 13 14 38 37 -1 14 15 39 38 -1 15 16 40 39 -1 16 17 41 40 -1 17 18 42 41 -1 18 19 43 42 -1 19 20 44 43 -1 20 21 45 44 -1 21 22 46 45 -1 22 23 47 46 -1 23 0 24 47 -1 23 22 21 20 19 18 17 16 15 14 13 12 11 10 9 8 7 6 5 4 3 2 1 0 -1 24 25 26 27 28 29 30 31 32 33 34 35 36 37 38 39 40 41 42 43 44 45 46 47 -1 ] } }
Shape { appearance Appearance { material Material { diffuseColor 0.78 0.16 0.16 specularColor 0.3 0.3 0.3 shininess 0.4 transparency 0.0 } } geometry IndexedFaceSet { solid FALSE coord Coordinate { point [ -3.14961 1.57480 0.00000, -3.16302 1.67670 0.00000, -3.20235 1.77165 0.00000, -3.26492 1.85319 0.00000, -3.34646 1.91576 0.00000, -3.44141 1.95509 0.00000, -3.54331 1.96850 0.00000, -3.64520 1.95509 0.00000, -3.74016 1.91576 0.00000, -3.82170 1.85319 0.00000, -3.88426 1.77165 0.00000, -3.92359 1.67670 0.00000, -3.93701 1.57480 0.00000, -3.92359 1.47291 0.00000, -3.88426 1.37795 0.00000, -3.82170 1.29641 0.00000, -3.74016 1.23385 0.00000, -3.64520 1.19452 0.00000, -3.54331 1.18110 0.00000, -3.44141 1.19452 0.00000, -3.34646 1.23385 0.00000, -3.26492 1.29641 0.00000, -3.20235 1.37795 0.00000, -3.16302 1.47291 0.00000, -3.14961 1.57480 4.68504, -3.16302 1.67670 4.68504, -3.20235 1.77165 4.68504, -3.26492 1.85319 4.68504, -3.34646 1.91576 4.68504, -3.44141 1.95509 4.68504, -3.54331 1.96850 4.68504, -3.64520 1.95509 4.68504, -3.74016 1.91576 4.68504, -3.82170 1.85319 4.68504, -3.88426 1.77165 4.68504, -3.92359 1.67670 4.68504, -3.93701 1.57480 4.68504, -3.92359 1.47291 4.68504, -3.88426 1.37795 4.68504, -3.82170 1.29641 4.68504, -3.74016 1.23385 4.68504, -3.64520 1.19452 4.68504, -3.54331 1.18110 4.68504, -3.44141 1.19452 4.68504, -3.34646 1.23385 4.68504, -3.26492 1.29641 4.68504, -3.20235 1.37795 4.68504, -3.16302 1.47291 4.68504 ] } coordIndex [ 0 1 25 24 -1 1 2 26 25 -1 2 3 27 26 -1 3 4 28 27 -1 4 5 29 28 -1 5 6 30 29 -1 6 7 31 30 -1 7 8 32 31 -1 8 9 33 32 -1 9 10 34 33 -1 10 11 35 34 -1 11 12 36 35 -1 12 13 37 36 -1 13 14 38 37 -1 14 15 39 38 -1 15 16 40 39 -1 16 17 41 40 -1 17 18 42 41 -1 18 19 43 42 -1 19 20 44 43 -1 20 21 45 44 -1 21 22 46 45 -1 22 23 47 46 -1 23 0 24 47 -1 23 22 21 20 19 18 17 16 15 14 13 12 11 10 9 8 7 6 5 4 3 2 1 0 -1 24 25 26 27 28 29 30 31 32 33 34 35 36 37 38 39 40 41 42 43 44 45 46 47 -1 ] } }
Shape { appearance Appearance { material Material { diffuseColor 0.78 0.16 0.16 specularColor 0.3 0.3 0.3 shininess 0.4 transparency 0.0 } } geometry IndexedFaceSet { solid FALSE coord Coordinate { point [ -0.78740 1.57480 0.00000, -0.80082 1.67670 0.00000, -0.84015 1.77165 0.00000, -0.90271 1.85319 0.00000, -0.98425 1.91576 0.00000, -1.07921 1.95509 0.00000, -1.18110 1.96850 0.00000, -1.28300 1.95509 0.00000, -1.37795 1.91576 0.00000, -1.45949 1.85319 0.00000, -1.52206 1.77165 0.00000, -1.56139 1.67670 0.00000, -1.57480 1.57480 0.00000, -1.56139 1.47291 0.00000, -1.52206 1.37795 0.00000, -1.45949 1.29641 0.00000, -1.37795 1.23385 0.00000, -1.28300 1.19452 0.00000, -1.18110 1.18110 0.00000, -1.07921 1.19452 0.00000, -0.98425 1.23385 0.00000, -0.90271 1.29641 0.00000, -0.84015 1.37795 0.00000, -0.80082 1.47291 0.00000, -0.78740 1.57480 4.68504, -0.80082 1.67670 4.68504, -0.84015 1.77165 4.68504, -0.90271 1.85319 4.68504, -0.98425 1.91576 4.68504, -1.07921 1.95509 4.68504, -1.18110 1.96850 4.68504, -1.28300 1.95509 4.68504, -1.37795 1.91576 4.68504, -1.45949 1.85319 4.68504, -1.52206 1.77165 4.68504, -1.56139 1.67670 4.68504, -1.57480 1.57480 4.68504, -1.56139 1.47291 4.68504, -1.52206 1.37795 4.68504, -1.45949 1.29641 4.68504, -1.37795 1.23385 4.68504, -1.28300 1.19452 4.68504, -1.18110 1.18110 4.68504, -1.07921 1.19452 4.68504, -0.98425 1.23385 4.68504, -0.90271 1.29641 4.68504, -0.84015 1.37795 4.68504, -0.80082 1.47291 4.68504 ] } coordIndex [ 0 1 25 24 -1 1 2 26 25 -1 2 3 27 26 -1 3 4 28 27 -1 4 5 29 28 -1 5 6 30 29 -1 6 7 31 30 -1 7 8 32 31 -1 8 9 33 32 -1 9 10 34 33 -1 10 11 35 34 -1 11 12 36 35 -1 12 13 37 36 -1 13 14 38 37 -1 14 15 39 38 -1 15 16 40 39 -1 16 17 41 40 -1 17 18 42 41 -1 18 19 43 42 -1 19 20 44 43 -1 20 21 45 44 -1 21 22 46 45 -1 22 23 47 46 -1 23 0 24 47 -1 23 22 21 20 19 18 17 16 15 14 13 12 11 10 9 8 7 6 5 4 3 2 1 0 -1 24 25 26 27 28 29 30 31 32 33 34 35 36 37 38 39 40 41 42 43 44 45 46 47 -1 ] } }
Shape { appearance Appearance { material Material { diffuseColor 0.18 0.49 0.2 specularColor 0.3 0.3 0.3 shininess 0.4 transparency 0.0 } } geometry IndexedFaceSet { solid FALSE coord Coordinate { point [ 1.57480 1.57480 0.00000, 1.56139 1.67670 0.00000, 1.52206 1.77165 0.00000, 1.45949 1.85319 0.00000, 1.37795 1.91576 0.00000, 1.28300 1.95509 0.00000, 1.18110 1.96850 0.00000, 1.07921 1.95509 0.00000, 0.98425 1.91576 0.00000, 0.90271 1.85319 0.00000, 0.84015 1.77165 0.00000, 0.80082 1.67670 0.00000, 0.78740 1.57480 0.00000, 0.80082 1.47291 0.00000, 0.84015 1.37795 0.00000, 0.90271 1.29641 0.00000, 0.98425 1.23385 0.00000, 1.07921 1.19452 0.00000, 1.18110 1.18110 0.00000, 1.28300 1.19452 0.00000, 1.37795 1.23385 0.00000, 1.45949 1.29641 0.00000, 1.52206 1.37795 0.00000, 1.56139 1.47291 0.00000, 1.57480 1.57480 4.92126, 1.56139 1.67670 4.92126, 1.52206 1.77165 4.92126, 1.45949 1.85319 4.92126, 1.37795 1.91576 4.92126, 1.28300 1.95509 4.92126, 1.18110 1.96850 4.92126, 1.07921 1.95509 4.92126, 0.98425 1.91576 4.92126, 0.90271 1.85319 4.92126, 0.84015 1.77165 4.92126, 0.80082 1.67670 4.92126, 0.78740 1.57480 4.92126, 0.80082 1.47291 4.92126, 0.84015 1.37795 4.92126, 0.90271 1.29641 4.92126, 0.98425 1.23385 4.92126, 1.07921 1.19452 4.92126, 1.18110 1.18110 4.92126, 1.28300 1.19452 4.92126, 1.37795 1.23385 4.92126, 1.45949 1.29641 4.92126, 1.52206 1.37795 4.92126, 1.56139 1.47291 4.92126 ] } coordIndex [ 0 1 25 24 -1 1 2 26 25 -1 2 3 27 26 -1 3 4 28 27 -1 4 5 29 28 -1 5 6 30 29 -1 6 7 31 30 -1 7 8 32 31 -1 8 9 33 32 -1 9 10 34 33 -1 10 11 35 34 -1 11 12 36 35 -1 12 13 37 36 -1 13 14 38 37 -1 14 15 39 38 -1 15 16 40 39 -1 16 17 41 40 -1 17 18 42 41 -1 18 19 43 42 -1 19 20 44 43 -1 20 21 45 44 -1 21 22 46 45 -1 22 23 47 46 -1 23 0 24 47 -1 23 22 21 20 19 18 17 16 15 14 13 12 11 10 9 8 7 6 5 4 3 2 1 0 -1 24 25 26 27 28 29 30 31 32 33 34 35 36 37 38 39 40 41 42 43 44 45 46 47 -1 ] } }
Shape { appearance Appearance { material Material { diffuseColor 0.08 0.4 0.75 specularColor 0.3 0.3 0.3 shininess 0.4 transparency 0.0 } } geometry IndexedFaceSet { solid FALSE coord Coordinate { point [ -5.72835 -0.19685 0.00000, -5.73438 -0.15100 0.00000, -5.75208 -0.10827 0.00000, -5.78024 -0.07158 0.00000, -5.81693 -0.04342 0.00000, -5.85966 -0.02572 0.00000, -5.90551 -0.01969 0.00000, -5.95137 -0.02572 0.00000, -5.99409 -0.04342 0.00000, -6.03079 -0.07158 0.00000, -6.05894 -0.10827 0.00000, -6.07664 -0.15100 0.00000, -6.08268 -0.19685 0.00000, -6.07664 -0.24270 0.00000, -6.05894 -0.28543 0.00000, -6.03079 -0.32213 0.00000, -5.99409 -0.35028 0.00000, -5.95137 -0.36798 0.00000, -5.90551 -0.37402 0.00000, -5.85966 -0.36798 0.00000, -5.81693 -0.35028 0.00000, -5.78024 -0.32213 0.00000, -5.75208 -0.28543 0.00000, -5.73438 -0.24270 0.00000, -5.72835 -0.19685 4.44882, -5.73438 -0.15100 4.44882, -5.75208 -0.10827 4.44882, -5.78024 -0.07158 4.44882, -5.81693 -0.04342 4.44882, -5.85966 -0.02572 4.44882, -5.90551 -0.01969 4.44882, -5.95137 -0.02572 4.44882, -5.99409 -0.04342 4.44882, -6.03079 -0.07158 4.44882, -6.05894 -0.10827 4.44882, -6.07664 -0.15100 4.44882, -6.08268 -0.19685 4.44882, -6.07664 -0.24270 4.44882, -6.05894 -0.28543 4.44882, -6.03079 -0.32213 4.44882, -5.99409 -0.35028 4.44882, -5.95137 -0.36798 4.44882, -5.90551 -0.37402 4.44882, -5.85966 -0.36798 4.44882, -5.81693 -0.35028 4.44882, -5.78024 -0.32213 4.44882, -5.75208 -0.28543 4.44882, -5.73438 -0.24270 4.44882 ] } coordIndex [ 0 1 25 24 -1 1 2 26 25 -1 2 3 27 26 -1 3 4 28 27 -1 4 5 29 28 -1 5 6 30 29 -1 6 7 31 30 -1 7 8 32 31 -1 8 9 33 32 -1 9 10 34 33 -1 10 11 35 34 -1 11 12 36 35 -1 12 13 37 36 -1 13 14 38 37 -1 14 15 39 38 -1 15 16 40 39 -1 16 17 41 40 -1 17 18 42 41 -1 18 19 43 42 -1 19 20 44 43 -1 20 21 45 44 -1 21 22 46 45 -1 22 23 47 46 -1 23 0 24 47 -1 23 22 21 20 19 18 17 16 15 14 13 12 11 10 9 8 7 6 5 4 3 2 1 0 -1 24 25 26 27 28 29 30 31 32 33 34 35 36 37 38 39 40 41 42 43 44 45 46 47 -1 ] } }
Shape { appearance Appearance { material Material { diffuseColor 0.08 0.4 0.75 specularColor 0.3 0.3 0.3 shininess 0.4 transparency 0.0 } } geometry IndexedFaceSet { solid FALSE coord Coordinate { point [ -4.54724 -0.19685 0.00000, -4.55328 -0.15100 0.00000, -4.57098 -0.10827 0.00000, -4.59913 -0.07158 0.00000, -4.63583 -0.04342 0.00000, -4.67856 -0.02572 0.00000, -4.72441 -0.01969 0.00000, -4.77026 -0.02572 0.00000, -4.81299 -0.04342 0.00000, -4.84968 -0.07158 0.00000, -4.87784 -0.10827 0.00000, -4.89554 -0.15100 0.00000, -4.90157 -0.19685 0.00000, -4.89554 -0.24270 0.00000, -4.87784 -0.28543 0.00000, -4.84968 -0.32213 0.00000, -4.81299 -0.35028 0.00000, -4.77026 -0.36798 0.00000, -4.72441 -0.37402 0.00000, -4.67856 -0.36798 0.00000, -4.63583 -0.35028 0.00000, -4.59913 -0.32213 0.00000, -4.57098 -0.28543 0.00000, -4.55328 -0.24270 0.00000, -4.54724 -0.19685 4.44882, -4.55328 -0.15100 4.44882, -4.57098 -0.10827 4.44882, -4.59913 -0.07158 4.44882, -4.63583 -0.04342 4.44882, -4.67856 -0.02572 4.44882, -4.72441 -0.01969 4.44882, -4.77026 -0.02572 4.44882, -4.81299 -0.04342 4.44882, -4.84968 -0.07158 4.44882, -4.87784 -0.10827 4.44882, -4.89554 -0.15100 4.44882, -4.90157 -0.19685 4.44882, -4.89554 -0.24270 4.44882, -4.87784 -0.28543 4.44882, -4.84968 -0.32213 4.44882, -4.81299 -0.35028 4.44882, -4.77026 -0.36798 4.44882, -4.72441 -0.37402 4.44882, -4.67856 -0.36798 4.44882, -4.63583 -0.35028 4.44882, -4.59913 -0.32213 4.44882, -4.57098 -0.28543 4.44882, -4.55328 -0.24270 4.44882 ] } coordIndex [ 0 1 25 24 -1 1 2 26 25 -1 2 3 27 26 -1 3 4 28 27 -1 4 5 29 28 -1 5 6 30 29 -1 6 7 31 30 -1 7 8 32 31 -1 8 9 33 32 -1 9 10 34 33 -1 10 11 35 34 -1 11 12 36 35 -1 12 13 37 36 -1 13 14 38 37 -1 14 15 39 38 -1 15 16 40 39 -1 16 17 41 40 -1 17 18 42 41 -1 18 19 43 42 -1 19 20 44 43 -1 20 21 45 44 -1 21 22 46 45 -1 22 23 47 46 -1 23 0 24 47 -1 23 22 21 20 19 18 17 16 15 14 13 12 11 10 9 8 7 6 5 4 3 2 1 0 -1 24 25 26 27 28 29 30 31 32 33 34 35 36 37 38 39 40 41 42 43 44 45 46 47 -1 ] } }
Shape { appearance Appearance { material Material { diffuseColor 0.08 0.4 0.75 specularColor 0.3 0.3 0.3 shininess 0.4 transparency 0.0 } } geometry IndexedFaceSet { solid FALSE coord Coordinate { point [ -3.36614 -0.19685 0.00000, -3.37218 -0.15100 0.00000, -3.38988 -0.10827 0.00000, -3.41803 -0.07158 0.00000, -3.45472 -0.04342 0.00000, -3.49745 -0.02572 0.00000, -3.54331 -0.01969 0.00000, -3.58916 -0.02572 0.00000, -3.63189 -0.04342 0.00000, -3.66858 -0.07158 0.00000, -3.69674 -0.10827 0.00000, -3.71444 -0.15100 0.00000, -3.72047 -0.19685 0.00000, -3.71444 -0.24270 0.00000, -3.69674 -0.28543 0.00000, -3.66858 -0.32213 0.00000, -3.63189 -0.35028 0.00000, -3.58916 -0.36798 0.00000, -3.54331 -0.37402 0.00000, -3.49745 -0.36798 0.00000, -3.45472 -0.35028 0.00000, -3.41803 -0.32213 0.00000, -3.38988 -0.28543 0.00000, -3.37218 -0.24270 0.00000, -3.36614 -0.19685 4.44882, -3.37218 -0.15100 4.44882, -3.38988 -0.10827 4.44882, -3.41803 -0.07158 4.44882, -3.45472 -0.04342 4.44882, -3.49745 -0.02572 4.44882, -3.54331 -0.01969 4.44882, -3.58916 -0.02572 4.44882, -3.63189 -0.04342 4.44882, -3.66858 -0.07158 4.44882, -3.69674 -0.10827 4.44882, -3.71444 -0.15100 4.44882, -3.72047 -0.19685 4.44882, -3.71444 -0.24270 4.44882, -3.69674 -0.28543 4.44882, -3.66858 -0.32213 4.44882, -3.63189 -0.35028 4.44882, -3.58916 -0.36798 4.44882, -3.54331 -0.37402 4.44882, -3.49745 -0.36798 4.44882, -3.45472 -0.35028 4.44882, -3.41803 -0.32213 4.44882, -3.38988 -0.28543 4.44882, -3.37218 -0.24270 4.44882 ] } coordIndex [ 0 1 25 24 -1 1 2 26 25 -1 2 3 27 26 -1 3 4 28 27 -1 4 5 29 28 -1 5 6 30 29 -1 6 7 31 30 -1 7 8 32 31 -1 8 9 33 32 -1 9 10 34 33 -1 10 11 35 34 -1 11 12 36 35 -1 12 13 37 36 -1 13 14 38 37 -1 14 15 39 38 -1 15 16 40 39 -1 16 17 41 40 -1 17 18 42 41 -1 18 19 43 42 -1 19 20 44 43 -1 20 21 45 44 -1 21 22 46 45 -1 22 23 47 46 -1 23 0 24 47 -1 23 22 21 20 19 18 17 16 15 14 13 12 11 10 9 8 7 6 5 4 3 2 1 0 -1 24 25 26 27 28 29 30 31 32 33 34 35 36 37 38 39 40 41 42 43 44 45 46 47 -1 ] } }
Shape { appearance Appearance { material Material { diffuseColor 0.08 0.4 0.75 specularColor 0.3 0.3 0.3 shininess 0.4 transparency 0.0 } } geometry IndexedFaceSet { solid FALSE coord Coordinate { point [ -2.18504 -0.19685 0.00000, -2.19108 -0.15100 0.00000, -2.20878 -0.10827 0.00000, -2.23693 -0.07158 0.00000, -2.27362 -0.04342 0.00000, -2.31635 -0.02572 0.00000, -2.36220 -0.01969 0.00000, -2.40806 -0.02572 0.00000, -2.45079 -0.04342 0.00000, -2.48748 -0.07158 0.00000, -2.51563 -0.10827 0.00000, -2.53333 -0.15100 0.00000, -2.53937 -0.19685 0.00000, -2.53333 -0.24270 0.00000, -2.51563 -0.28543 0.00000, -2.48748 -0.32213 0.00000, -2.45079 -0.35028 0.00000, -2.40806 -0.36798 0.00000, -2.36220 -0.37402 0.00000, -2.31635 -0.36798 0.00000, -2.27362 -0.35028 0.00000, -2.23693 -0.32213 0.00000, -2.20878 -0.28543 0.00000, -2.19108 -0.24270 0.00000, -2.18504 -0.19685 4.44882, -2.19108 -0.15100 4.44882, -2.20878 -0.10827 4.44882, -2.23693 -0.07158 4.44882, -2.27362 -0.04342 4.44882, -2.31635 -0.02572 4.44882, -2.36220 -0.01969 4.44882, -2.40806 -0.02572 4.44882, -2.45079 -0.04342 4.44882, -2.48748 -0.07158 4.44882, -2.51563 -0.10827 4.44882, -2.53333 -0.15100 4.44882, -2.53937 -0.19685 4.44882, -2.53333 -0.24270 4.44882, -2.51563 -0.28543 4.44882, -2.48748 -0.32213 4.44882, -2.45079 -0.35028 4.44882, -2.40806 -0.36798 4.44882, -2.36220 -0.37402 4.44882, -2.31635 -0.36798 4.44882, -2.27362 -0.35028 4.44882, -2.23693 -0.32213 4.44882, -2.20878 -0.28543 4.44882, -2.19108 -0.24270 4.44882 ] } coordIndex [ 0 1 25 24 -1 1 2 26 25 -1 2 3 27 26 -1 3 4 28 27 -1 4 5 29 28 -1 5 6 30 29 -1 6 7 31 30 -1 7 8 32 31 -1 8 9 33 32 -1 9 10 34 33 -1 10 11 35 34 -1 11 12 36 35 -1 12 13 37 36 -1 13 14 38 37 -1 14 15 39 38 -1 15 16 40 39 -1 16 17 41 40 -1 17 18 42 41 -1 18 19 43 42 -1 19 20 44 43 -1 20 21 45 44 -1 21 22 46 45 -1 22 23 47 46 -1 23 0 24 47 -1 23 22 21 20 19 18 17 16 15 14 13 12 11 10 9 8 7 6 5 4 3 2 1 0 -1 24 25 26 27 28 29 30 31 32 33 34 35 36 37 38 39 40 41 42 43 44 45 46 47 -1 ] } }
Shape { appearance Appearance { material Material { diffuseColor 0.08 0.4 0.75 specularColor 0.3 0.3 0.3 shininess 0.4 transparency 0.0 } } geometry IndexedFaceSet { solid FALSE coord Coordinate { point [ -1.00394 -0.19685 0.00000, -1.00997 -0.15100 0.00000, -1.02767 -0.10827 0.00000, -1.05583 -0.07158 0.00000, -1.09252 -0.04342 0.00000, -1.13525 -0.02572 0.00000, -1.18110 -0.01969 0.00000, -1.22696 -0.02572 0.00000, -1.26969 -0.04342 0.00000, -1.30638 -0.07158 0.00000, -1.33453 -0.10827 0.00000, -1.35223 -0.15100 0.00000, -1.35827 -0.19685 0.00000, -1.35223 -0.24270 0.00000, -1.33453 -0.28543 0.00000, -1.30638 -0.32213 0.00000, -1.26969 -0.35028 0.00000, -1.22696 -0.36798 0.00000, -1.18110 -0.37402 0.00000, -1.13525 -0.36798 0.00000, -1.09252 -0.35028 0.00000, -1.05583 -0.32213 0.00000, -1.02767 -0.28543 0.00000, -1.00997 -0.24270 0.00000, -1.00394 -0.19685 4.44882, -1.00997 -0.15100 4.44882, -1.02767 -0.10827 4.44882, -1.05583 -0.07158 4.44882, -1.09252 -0.04342 4.44882, -1.13525 -0.02572 4.44882, -1.18110 -0.01969 4.44882, -1.22696 -0.02572 4.44882, -1.26969 -0.04342 4.44882, -1.30638 -0.07158 4.44882, -1.33453 -0.10827 4.44882, -1.35223 -0.15100 4.44882, -1.35827 -0.19685 4.44882, -1.35223 -0.24270 4.44882, -1.33453 -0.28543 4.44882, -1.30638 -0.32213 4.44882, -1.26969 -0.35028 4.44882, -1.22696 -0.36798 4.44882, -1.18110 -0.37402 4.44882, -1.13525 -0.36798 4.44882, -1.09252 -0.35028 4.44882, -1.05583 -0.32213 4.44882, -1.02767 -0.28543 4.44882, -1.00997 -0.24270 4.44882 ] } coordIndex [ 0 1 25 24 -1 1 2 26 25 -1 2 3 27 26 -1 3 4 28 27 -1 4 5 29 28 -1 5 6 30 29 -1 6 7 31 30 -1 7 8 32 31 -1 8 9 33 32 -1 9 10 34 33 -1 10 11 35 34 -1 11 12 36 35 -1 12 13 37 36 -1 13 14 38 37 -1 14 15 39 38 -1 15 16 40 39 -1 16 17 41 40 -1 17 18 42 41 -1 18 19 43 42 -1 19 20 44 43 -1 20 21 45 44 -1 21 22 46 45 -1 22 23 47 46 -1 23 0 24 47 -1 23 22 21 20 19 18 17 16 15 14 13 12 11 10 9 8 7 6 5 4 3 2 1 0 -1 24 25 26 27 28 29 30 31 32 33 34 35 36 37 38 39 40 41 42 43 44 45 46 47 -1 ] } }
Shape { appearance Appearance { material Material { diffuseColor 0.08 0.4 0.75 specularColor 0.3 0.3 0.3 shininess 0.4 transparency 0.0 } } geometry IndexedFaceSet { solid FALSE coord Coordinate { point [ 0.17717 -0.19685 0.00000, 0.17113 -0.15100 0.00000, 0.15343 -0.10827 0.00000, 0.12527 -0.07158 0.00000, 0.08858 -0.04342 0.00000, 0.04585 -0.02572 0.00000, 0.00000 -0.01969 0.00000, -0.04585 -0.02572 0.00000, -0.08858 -0.04342 0.00000, -0.12527 -0.07158 0.00000, -0.15343 -0.10827 0.00000, -0.17113 -0.15100 0.00000, -0.17717 -0.19685 0.00000, -0.17113 -0.24270 0.00000, -0.15343 -0.28543 0.00000, -0.12527 -0.32213 0.00000, -0.08858 -0.35028 0.00000, -0.04585 -0.36798 0.00000, -0.00000 -0.37402 0.00000, 0.04585 -0.36798 0.00000, 0.08858 -0.35028 0.00000, 0.12527 -0.32213 0.00000, 0.15343 -0.28543 0.00000, 0.17113 -0.24270 0.00000, 0.17717 -0.19685 4.44882, 0.17113 -0.15100 4.44882, 0.15343 -0.10827 4.44882, 0.12527 -0.07158 4.44882, 0.08858 -0.04342 4.44882, 0.04585 -0.02572 4.44882, 0.00000 -0.01969 4.44882, -0.04585 -0.02572 4.44882, -0.08858 -0.04342 4.44882, -0.12527 -0.07158 4.44882, -0.15343 -0.10827 4.44882, -0.17113 -0.15100 4.44882, -0.17717 -0.19685 4.44882, -0.17113 -0.24270 4.44882, -0.15343 -0.28543 4.44882, -0.12527 -0.32213 4.44882, -0.08858 -0.35028 4.44882, -0.04585 -0.36798 4.44882, -0.00000 -0.37402 4.44882, 0.04585 -0.36798 4.44882, 0.08858 -0.35028 4.44882, 0.12527 -0.32213 4.44882, 0.15343 -0.28543 4.44882, 0.17113 -0.24270 4.44882 ] } coordIndex [ 0 1 25 24 -1 1 2 26 25 -1 2 3 27 26 -1 3 4 28 27 -1 4 5 29 28 -1 5 6 30 29 -1 6 7 31 30 -1 7 8 32 31 -1 8 9 33 32 -1 9 10 34 33 -1 10 11 35 34 -1 11 12 36 35 -1 12 13 37 36 -1 13 14 38 37 -1 14 15 39 38 -1 15 16 40 39 -1 16 17 41 40 -1 17 18 42 41 -1 18 19 43 42 -1 19 20 44 43 -1 20 21 45 44 -1 21 22 46 45 -1 22 23 47 46 -1 23 0 24 47 -1 23 22 21 20 19 18 17 16 15 14 13 12 11 10 9 8 7 6 5 4 3 2 1 0 -1 24 25 26 27 28 29 30 31 32 33 34 35 36 37 38 39 40 41 42 43 44 45 46 47 -1 ] } }
Shape { appearance Appearance { material Material { diffuseColor 0.42 0.11 0.6 specularColor 0.3 0.3 0.3 shininess 0.4 transparency 0.0 } } geometry IndexedFaceSet { solid FALSE coord Coordinate { point [ -5.72835 -1.37795 0.00000, -5.73438 -1.33210 0.00000, -5.75208 -1.28937 0.00000, -5.78024 -1.25268 0.00000, -5.81693 -1.22452 0.00000, -5.85966 -1.20682 0.00000, -5.90551 -1.20079 0.00000, -5.95137 -1.20682 0.00000, -5.99409 -1.22452 0.00000, -6.03079 -1.25268 0.00000, -6.05894 -1.28937 0.00000, -6.07664 -1.33210 0.00000, -6.08268 -1.37795 0.00000, -6.07664 -1.42381 0.00000, -6.05894 -1.46654 0.00000, -6.03079 -1.50323 0.00000, -5.99409 -1.53138 0.00000, -5.95137 -1.54908 0.00000, -5.90551 -1.55512 0.00000, -5.85966 -1.54908 0.00000, -5.81693 -1.53138 0.00000, -5.78024 -1.50323 0.00000, -5.75208 -1.46654 0.00000, -5.73438 -1.42381 0.00000, -5.72835 -1.37795 4.21260, -5.73438 -1.33210 4.21260, -5.75208 -1.28937 4.21260, -5.78024 -1.25268 4.21260, -5.81693 -1.22452 4.21260, -5.85966 -1.20682 4.21260, -5.90551 -1.20079 4.21260, -5.95137 -1.20682 4.21260, -5.99409 -1.22452 4.21260, -6.03079 -1.25268 4.21260, -6.05894 -1.28937 4.21260, -6.07664 -1.33210 4.21260, -6.08268 -1.37795 4.21260, -6.07664 -1.42381 4.21260, -6.05894 -1.46654 4.21260, -6.03079 -1.50323 4.21260, -5.99409 -1.53138 4.21260, -5.95137 -1.54908 4.21260, -5.90551 -1.55512 4.21260, -5.85966 -1.54908 4.21260, -5.81693 -1.53138 4.21260, -5.78024 -1.50323 4.21260, -5.75208 -1.46654 4.21260, -5.73438 -1.42381 4.21260 ] } coordIndex [ 0 1 25 24 -1 1 2 26 25 -1 2 3 27 26 -1 3 4 28 27 -1 4 5 29 28 -1 5 6 30 29 -1 6 7 31 30 -1 7 8 32 31 -1 8 9 33 32 -1 9 10 34 33 -1 10 11 35 34 -1 11 12 36 35 -1 12 13 37 36 -1 13 14 38 37 -1 14 15 39 38 -1 15 16 40 39 -1 16 17 41 40 -1 17 18 42 41 -1 18 19 43 42 -1 19 20 44 43 -1 20 21 45 44 -1 21 22 46 45 -1 22 23 47 46 -1 23 0 24 47 -1 23 22 21 20 19 18 17 16 15 14 13 12 11 10 9 8 7 6 5 4 3 2 1 0 -1 24 25 26 27 28 29 30 31 32 33 34 35 36 37 38 39 40 41 42 43 44 45 46 47 -1 ] } }
Shape { appearance Appearance { material Material { diffuseColor 0.08 0.4 0.75 specularColor 0.3 0.3 0.3 shininess 0.4 transparency 0.0 } } geometry IndexedFaceSet { solid FALSE coord Coordinate { point [ -4.54724 -1.37795 0.00000, -4.55328 -1.33210 0.00000, -4.57098 -1.28937 0.00000, -4.59913 -1.25268 0.00000, -4.63583 -1.22452 0.00000, -4.67856 -1.20682 0.00000, -4.72441 -1.20079 0.00000, -4.77026 -1.20682 0.00000, -4.81299 -1.22452 0.00000, -4.84968 -1.25268 0.00000, -4.87784 -1.28937 0.00000, -4.89554 -1.33210 0.00000, -4.90157 -1.37795 0.00000, -4.89554 -1.42381 0.00000, -4.87784 -1.46654 0.00000, -4.84968 -1.50323 0.00000, -4.81299 -1.53138 0.00000, -4.77026 -1.54908 0.00000, -4.72441 -1.55512 0.00000, -4.67856 -1.54908 0.00000, -4.63583 -1.53138 0.00000, -4.59913 -1.50323 0.00000, -4.57098 -1.46654 0.00000, -4.55328 -1.42381 0.00000, -4.54724 -1.37795 4.44882, -4.55328 -1.33210 4.44882, -4.57098 -1.28937 4.44882, -4.59913 -1.25268 4.44882, -4.63583 -1.22452 4.44882, -4.67856 -1.20682 4.44882, -4.72441 -1.20079 4.44882, -4.77026 -1.20682 4.44882, -4.81299 -1.22452 4.44882, -4.84968 -1.25268 4.44882, -4.87784 -1.28937 4.44882, -4.89554 -1.33210 4.44882, -4.90157 -1.37795 4.44882, -4.89554 -1.42381 4.44882, -4.87784 -1.46654 4.44882, -4.84968 -1.50323 4.44882, -4.81299 -1.53138 4.44882, -4.77026 -1.54908 4.44882, -4.72441 -1.55512 4.44882, -4.67856 -1.54908 4.44882, -4.63583 -1.53138 4.44882, -4.59913 -1.50323 4.44882, -4.57098 -1.46654 4.44882, -4.55328 -1.42381 4.44882 ] } coordIndex [ 0 1 25 24 -1 1 2 26 25 -1 2 3 27 26 -1 3 4 28 27 -1 4 5 29 28 -1 5 6 30 29 -1 6 7 31 30 -1 7 8 32 31 -1 8 9 33 32 -1 9 10 34 33 -1 10 11 35 34 -1 11 12 36 35 -1 12 13 37 36 -1 13 14 38 37 -1 14 15 39 38 -1 15 16 40 39 -1 16 17 41 40 -1 17 18 42 41 -1 18 19 43 42 -1 19 20 44 43 -1 20 21 45 44 -1 21 22 46 45 -1 22 23 47 46 -1 23 0 24 47 -1 23 22 21 20 19 18 17 16 15 14 13 12 11 10 9 8 7 6 5 4 3 2 1 0 -1 24 25 26 27 28 29 30 31 32 33 34 35 36 37 38 39 40 41 42 43 44 45 46 47 -1 ] } }
Shape { appearance Appearance { material Material { diffuseColor 0.08 0.4 0.75 specularColor 0.3 0.3 0.3 shininess 0.4 transparency 0.0 } } geometry IndexedFaceSet { solid FALSE coord Coordinate { point [ -3.36614 -1.37795 0.00000, -3.37218 -1.33210 0.00000, -3.38988 -1.28937 0.00000, -3.41803 -1.25268 0.00000, -3.45472 -1.22452 0.00000, -3.49745 -1.20682 0.00000, -3.54331 -1.20079 0.00000, -3.58916 -1.20682 0.00000, -3.63189 -1.22452 0.00000, -3.66858 -1.25268 0.00000, -3.69674 -1.28937 0.00000, -3.71444 -1.33210 0.00000, -3.72047 -1.37795 0.00000, -3.71444 -1.42381 0.00000, -3.69674 -1.46654 0.00000, -3.66858 -1.50323 0.00000, -3.63189 -1.53138 0.00000, -3.58916 -1.54908 0.00000, -3.54331 -1.55512 0.00000, -3.49745 -1.54908 0.00000, -3.45472 -1.53138 0.00000, -3.41803 -1.50323 0.00000, -3.38988 -1.46654 0.00000, -3.37218 -1.42381 0.00000, -3.36614 -1.37795 4.44882, -3.37218 -1.33210 4.44882, -3.38988 -1.28937 4.44882, -3.41803 -1.25268 4.44882, -3.45472 -1.22452 4.44882, -3.49745 -1.20682 4.44882, -3.54331 -1.20079 4.44882, -3.58916 -1.20682 4.44882, -3.63189 -1.22452 4.44882, -3.66858 -1.25268 4.44882, -3.69674 -1.28937 4.44882, -3.71444 -1.33210 4.44882, -3.72047 -1.37795 4.44882, -3.71444 -1.42381 4.44882, -3.69674 -1.46654 4.44882, -3.66858 -1.50323 4.44882, -3.63189 -1.53138 4.44882, -3.58916 -1.54908 4.44882, -3.54331 -1.55512 4.44882, -3.49745 -1.54908 4.44882, -3.45472 -1.53138 4.44882, -3.41803 -1.50323 4.44882, -3.38988 -1.46654 4.44882, -3.37218 -1.42381 4.44882 ] } coordIndex [ 0 1 25 24 -1 1 2 26 25 -1 2 3 27 26 -1 3 4 28 27 -1 4 5 29 28 -1 5 6 30 29 -1 6 7 31 30 -1 7 8 32 31 -1 8 9 33 32 -1 9 10 34 33 -1 10 11 35 34 -1 11 12 36 35 -1 12 13 37 36 -1 13 14 38 37 -1 14 15 39 38 -1 15 16 40 39 -1 16 17 41 40 -1 17 18 42 41 -1 18 19 43 42 -1 19 20 44 43 -1 20 21 45 44 -1 21 22 46 45 -1 22 23 47 46 -1 23 0 24 47 -1 23 22 21 20 19 18 17 16 15 14 13 12 11 10 9 8 7 6 5 4 3 2 1 0 -1 24 25 26 27 28 29 30 31 32 33 34 35 36 37 38 39 40 41 42 43 44 45 46 47 -1 ] } }
Shape { appearance Appearance { material Material { diffuseColor 0.08 0.4 0.75 specularColor 0.3 0.3 0.3 shininess 0.4 transparency 0.0 } } geometry IndexedFaceSet { solid FALSE coord Coordinate { point [ -2.18504 -1.37795 0.00000, -2.19108 -1.33210 0.00000, -2.20878 -1.28937 0.00000, -2.23693 -1.25268 0.00000, -2.27362 -1.22452 0.00000, -2.31635 -1.20682 0.00000, -2.36220 -1.20079 0.00000, -2.40806 -1.20682 0.00000, -2.45079 -1.22452 0.00000, -2.48748 -1.25268 0.00000, -2.51563 -1.28937 0.00000, -2.53333 -1.33210 0.00000, -2.53937 -1.37795 0.00000, -2.53333 -1.42381 0.00000, -2.51563 -1.46654 0.00000, -2.48748 -1.50323 0.00000, -2.45079 -1.53138 0.00000, -2.40806 -1.54908 0.00000, -2.36220 -1.55512 0.00000, -2.31635 -1.54908 0.00000, -2.27362 -1.53138 0.00000, -2.23693 -1.50323 0.00000, -2.20878 -1.46654 0.00000, -2.19108 -1.42381 0.00000, -2.18504 -1.37795 4.44882, -2.19108 -1.33210 4.44882, -2.20878 -1.28937 4.44882, -2.23693 -1.25268 4.44882, -2.27362 -1.22452 4.44882, -2.31635 -1.20682 4.44882, -2.36220 -1.20079 4.44882, -2.40806 -1.20682 4.44882, -2.45079 -1.22452 4.44882, -2.48748 -1.25268 4.44882, -2.51563 -1.28937 4.44882, -2.53333 -1.33210 4.44882, -2.53937 -1.37795 4.44882, -2.53333 -1.42381 4.44882, -2.51563 -1.46654 4.44882, -2.48748 -1.50323 4.44882, -2.45079 -1.53138 4.44882, -2.40806 -1.54908 4.44882, -2.36220 -1.55512 4.44882, -2.31635 -1.54908 4.44882, -2.27362 -1.53138 4.44882, -2.23693 -1.50323 4.44882, -2.20878 -1.46654 4.44882, -2.19108 -1.42381 4.44882 ] } coordIndex [ 0 1 25 24 -1 1 2 26 25 -1 2 3 27 26 -1 3 4 28 27 -1 4 5 29 28 -1 5 6 30 29 -1 6 7 31 30 -1 7 8 32 31 -1 8 9 33 32 -1 9 10 34 33 -1 10 11 35 34 -1 11 12 36 35 -1 12 13 37 36 -1 13 14 38 37 -1 14 15 39 38 -1 15 16 40 39 -1 16 17 41 40 -1 17 18 42 41 -1 18 19 43 42 -1 19 20 44 43 -1 20 21 45 44 -1 21 22 46 45 -1 22 23 47 46 -1 23 0 24 47 -1 23 22 21 20 19 18 17 16 15 14 13 12 11 10 9 8 7 6 5 4 3 2 1 0 -1 24 25 26 27 28 29 30 31 32 33 34 35 36 37 38 39 40 41 42 43 44 45 46 47 -1 ] } }
Shape { appearance Appearance { material Material { diffuseColor 0.08 0.4 0.75 specularColor 0.3 0.3 0.3 shininess 0.4 transparency 0.0 } } geometry IndexedFaceSet { solid FALSE coord Coordinate { point [ -1.00394 -1.37795 0.00000, -1.00997 -1.33210 0.00000, -1.02767 -1.28937 0.00000, -1.05583 -1.25268 0.00000, -1.09252 -1.22452 0.00000, -1.13525 -1.20682 0.00000, -1.18110 -1.20079 0.00000, -1.22696 -1.20682 0.00000, -1.26969 -1.22452 0.00000, -1.30638 -1.25268 0.00000, -1.33453 -1.28937 0.00000, -1.35223 -1.33210 0.00000, -1.35827 -1.37795 0.00000, -1.35223 -1.42381 0.00000, -1.33453 -1.46654 0.00000, -1.30638 -1.50323 0.00000, -1.26969 -1.53138 0.00000, -1.22696 -1.54908 0.00000, -1.18110 -1.55512 0.00000, -1.13525 -1.54908 0.00000, -1.09252 -1.53138 0.00000, -1.05583 -1.50323 0.00000, -1.02767 -1.46654 0.00000, -1.00997 -1.42381 0.00000, -1.00394 -1.37795 4.44882, -1.00997 -1.33210 4.44882, -1.02767 -1.28937 4.44882, -1.05583 -1.25268 4.44882, -1.09252 -1.22452 4.44882, -1.13525 -1.20682 4.44882, -1.18110 -1.20079 4.44882, -1.22696 -1.20682 4.44882, -1.26969 -1.22452 4.44882, -1.30638 -1.25268 4.44882, -1.33453 -1.28937 4.44882, -1.35223 -1.33210 4.44882, -1.35827 -1.37795 4.44882, -1.35223 -1.42381 4.44882, -1.33453 -1.46654 4.44882, -1.30638 -1.50323 4.44882, -1.26969 -1.53138 4.44882, -1.22696 -1.54908 4.44882, -1.18110 -1.55512 4.44882, -1.13525 -1.54908 4.44882, -1.09252 -1.53138 4.44882, -1.05583 -1.50323 4.44882, -1.02767 -1.46654 4.44882, -1.00997 -1.42381 4.44882 ] } coordIndex [ 0 1 25 24 -1 1 2 26 25 -1 2 3 27 26 -1 3 4 28 27 -1 4 5 29 28 -1 5 6 30 29 -1 6 7 31 30 -1 7 8 32 31 -1 8 9 33 32 -1 9 10 34 33 -1 10 11 35 34 -1 11 12 36 35 -1 12 13 37 36 -1 13 14 38 37 -1 14 15 39 38 -1 15 16 40 39 -1 16 17 41 40 -1 17 18 42 41 -1 18 19 43 42 -1 19 20 44 43 -1 20 21 45 44 -1 21 22 46 45 -1 22 23 47 46 -1 23 0 24 47 -1 23 22 21 20 19 18 17 16 15 14 13 12 11 10 9 8 7 6 5 4 3 2 1 0 -1 24 25 26 27 28 29 30 31 32 33 34 35 36 37 38 39 40 41 42 43 44 45 46 47 -1 ] } }
Shape { appearance Appearance { material Material { diffuseColor 0.42 0.11 0.6 specularColor 0.3 0.3 0.3 shininess 0.4 transparency 0.0 } } geometry IndexedFaceSet { solid FALSE coord Coordinate { point [ 6.27953 1.57480 0.00000, 6.27349 1.62066 0.00000, 6.25579 1.66339 0.00000, 6.22764 1.70008 0.00000, 6.19094 1.72823 0.00000, 6.14822 1.74593 0.00000, 6.10236 1.75197 0.00000, 6.05651 1.74593 0.00000, 6.01378 1.72823 0.00000, 5.97709 1.70008 0.00000, 5.94893 1.66339 0.00000, 5.93123 1.62066 0.00000, 5.92520 1.57480 0.00000, 5.93123 1.52895 0.00000, 5.94893 1.48622 0.00000, 5.97709 1.44953 0.00000, 6.01378 1.42137 0.00000, 6.05651 1.40367 0.00000, 6.10236 1.39764 0.00000, 6.14822 1.40367 0.00000, 6.19094 1.42137 0.00000, 6.22764 1.44953 0.00000, 6.25579 1.48622 0.00000, 6.27349 1.52895 0.00000, 6.27953 1.57480 4.21260, 6.27349 1.62066 4.21260, 6.25579 1.66339 4.21260, 6.22764 1.70008 4.21260, 6.19094 1.72823 4.21260, 6.14822 1.74593 4.21260, 6.10236 1.75197 4.21260, 6.05651 1.74593 4.21260, 6.01378 1.72823 4.21260, 5.97709 1.70008 4.21260, 5.94893 1.66339 4.21260, 5.93123 1.62066 4.21260, 5.92520 1.57480 4.21260, 5.93123 1.52895 4.21260, 5.94893 1.48622 4.21260, 5.97709 1.44953 4.21260, 6.01378 1.42137 4.21260, 6.05651 1.40367 4.21260, 6.10236 1.39764 4.21260, 6.14822 1.40367 4.21260, 6.19094 1.42137 4.21260, 6.22764 1.44953 4.21260, 6.25579 1.48622 4.21260, 6.27349 1.52895 4.21260 ] } coordIndex [ 0 1 25 24 -1 1 2 26 25 -1 2 3 27 26 -1 3 4 28 27 -1 4 5 29 28 -1 5 6 30 29 -1 6 7 31 30 -1 7 8 32 31 -1 8 9 33 32 -1 9 10 34 33 -1 10 11 35 34 -1 11 12 36 35 -1 12 13 37 36 -1 13 14 38 37 -1 14 15 39 38 -1 15 16 40 39 -1 16 17 41 40 -1 17 18 42 41 -1 18 19 43 42 -1 19 20 44 43 -1 20 21 45 44 -1 21 22 46 45 -1 22 23 47 46 -1 23 0 24 47 -1 23 22 21 20 19 18 17 16 15 14 13 12 11 10 9 8 7 6 5 4 3 2 1 0 -1 24 25 26 27 28 29 30 31 32 33 34 35 36 37 38 39 40 41 42 43 44 45 46 47 -1 ] } }
Shape { appearance Appearance { material Material { diffuseColor 0.75 0.75 0.78 specularColor 0.3 0.3 0.3 shininess 0.4 transparency 0.0 } } geometry IndexedFaceSet { solid FALSE coord Coordinate { point [ 4.82283 -0.39370 0.00000, 4.79265 -0.16443 0.00000, 4.70416 0.04921 0.00000, 4.56338 0.23267 0.00000, 4.37992 0.37345 0.00000, 4.16628 0.46194 0.00000, 3.93701 0.49213 0.00000, 3.70774 0.46194 0.00000, 3.49409 0.37345 0.00000, 3.31063 0.23267 0.00000, 3.16986 0.04921 0.00000, 3.08136 -0.16443 0.00000, 3.05118 -0.39370 0.00000, 3.08136 -0.62297 0.00000, 3.16986 -0.83661 0.00000, 3.31063 -1.02007 0.00000, 3.49409 -1.16085 0.00000, 3.70774 -1.24934 0.00000, 3.93701 -1.27953 0.00000, 4.16628 -1.24934 0.00000, 4.37992 -1.16085 0.00000, 4.56338 -1.02007 0.00000, 4.70416 -0.83661 0.00000, 4.79265 -0.62297 0.00000, 4.82283 -0.39370 4.33071, 4.79265 -0.16443 4.33071, 4.70416 0.04921 4.33071, 4.56338 0.23267 4.33071, 4.37992 0.37345 4.33071, 4.16628 0.46194 4.33071, 3.93701 0.49213 4.33071, 3.70774 0.46194 4.33071, 3.49409 0.37345 4.33071, 3.31063 0.23267 4.33071, 3.16986 0.04921 4.33071, 3.08136 -0.16443 4.33071, 3.05118 -0.39370 4.33071, 3.08136 -0.62297 4.33071, 3.16986 -0.83661 4.33071, 3.31063 -1.02007 4.33071, 3.49409 -1.16085 4.33071, 3.70774 -1.24934 4.33071, 3.93701 -1.27953 4.33071, 4.16628 -1.24934 4.33071, 4.37992 -1.16085 4.33071, 4.56338 -1.02007 4.33071, 4.70416 -0.83661 4.33071, 4.79265 -0.62297 4.33071 ] } coordIndex [ 0 1 25 24 -1 1 2 26 25 -1 2 3 27 26 -1 3 4 28 27 -1 4 5 29 28 -1 5 6 30 29 -1 6 7 31 30 -1 7 8 32 31 -1 8 9 33 32 -1 9 10 34 33 -1 10 11 35 34 -1 11 12 36 35 -1 12 13 37 36 -1 13 14 38 37 -1 14 15 39 38 -1 15 16 40 39 -1 16 17 41 40 -1 17 18 42 41 -1 18 19 43 42 -1 19 20 44 43 -1 20 21 45 44 -1 21 22 46 45 -1 22 23 47 46 -1 23 0 24 47 -1 23 22 21 20 19 18 17 16 15 14 13 12 11 10 9 8 7 6 5 4 3 2 1 0 -1 24 25 26 27 28 29 30 31 32 33 34 35 36 37 38 39 40 41 42 43 44 45 46 47 -1 ] } }
Shape { appearance Appearance { material Material { diffuseColor 0.62 0.64 0.66 specularColor 0.3 0.3 0.3 shininess 0.4 transparency 0.0 } } geometry IndexedFaceSet { solid FALSE coord Coordinate { point [ -8.26772 0.00000 0.00000, -8.29455 0.20379 0.00000, -8.37321 0.39370 0.00000, -8.49834 0.55678 0.00000, -8.66142 0.68191 0.00000, -8.85132 0.76057 0.00000, -9.05512 0.78740 0.00000, -9.25891 0.76057 0.00000, -9.44882 0.68191 0.00000, -9.61190 0.55678 0.00000, -9.73703 0.39370 0.00000, -9.81569 0.20379 0.00000, -9.84252 0.00000 0.00000, -9.81569 -0.20379 0.00000, -9.73703 -0.39370 0.00000, -9.61190 -0.55678 0.00000, -9.44882 -0.68191 0.00000, -9.25891 -0.76057 0.00000, -9.05512 -0.78740 0.00000, -8.85132 -0.76057 0.00000, -8.66142 -0.68191 0.00000, -8.49834 -0.55678 0.00000, -8.37321 -0.39370 0.00000, -8.29455 -0.20379 0.00000, -8.26772 0.00000 7.87402, -8.29455 0.20379 7.87402, -8.37321 0.39370 7.87402, -8.49834 0.55678 7.87402, -8.66142 0.68191 7.87402, -8.85132 0.76057 7.87402, -9.05512 0.78740 7.87402, -9.25891 0.76057 7.87402, -9.44882 0.68191 7.87402, -9.61190 0.55678 7.87402, -9.73703 0.39370 7.87402, -9.81569 0.20379 7.87402, -9.84252 0.00000 7.87402, -9.81569 -0.20379 7.87402, -9.73703 -0.39370 7.87402, -9.61190 -0.55678 7.87402, -9.44882 -0.68191 7.87402, -9.25891 -0.76057 7.87402, -9.05512 -0.78740 7.87402, -8.85132 -0.76057 7.87402, -8.66142 -0.68191 7.87402, -8.49834 -0.55678 7.87402, -8.37321 -0.39370 7.87402, -8.29455 -0.20379 7.87402 ] } coordIndex [ 0 1 25 24 -1 1 2 26 25 -1 2 3 27 26 -1 3 4 28 27 -1 4 5 29 28 -1 5 6 30 29 -1 6 7 31 30 -1 7 8 32 31 -1 8 9 33 32 -1 9 10 34 33 -1 10 11 35 34 -1 11 12 36 35 -1 12 13 37 36 -1 13 14 38 37 -1 14 15 39 38 -1 15 16 40 39 -1 16 17 41 40 -1 17 18 42 41 -1 18 19 43 42 -1 19 20 44 43 -1 20 21 45 44 -1 21 22 46 45 -1 22 23 47 46 -1 23 0 24 47 -1 23 22 21 20 19 18 17 16 15 14 13 12 11 10 9 8 7 6 5 4 3 2 1 0 -1 24 25 26 27 28 29 30 31 32 33 34 35 36 37 38 39 40 41 42 43 44 45 46 47 -1 ] } }
Shape { appearance Appearance { material Material { diffuseColor 0.62 0.64 0.66 specularColor 0.3 0.3 0.3 shininess 0.4 transparency 0.0 } } geometry IndexedFaceSet { solid FALSE coord Coordinate { point [ -8.26772 0.00000 7.87402, -8.29455 0.20379 7.87402, -8.37321 0.39370 7.87402, -8.49834 0.55678 7.87402, -8.66142 0.68191 7.87402, -8.85132 0.76057 7.87402, -9.05512 0.78740 7.87402, -9.25891 0.76057 7.87402, -9.44882 0.68191 7.87402, -9.61190 0.55678 7.87402, -9.73703 0.39370 7.87402, -9.81569 0.20379 7.87402, -9.84252 0.00000 7.87402, -9.81569 -0.20379 7.87402, -9.73703 -0.39370 7.87402, -9.61190 -0.55678 7.87402, -9.44882 -0.68191 7.87402, -9.25891 -0.76057 7.87402, -9.05512 -0.78740 7.87402, -8.85132 -0.76057 7.87402, -8.66142 -0.68191 7.87402, -8.49834 -0.55678 7.87402, -8.37321 -0.39370 7.87402, -8.29455 -0.20379 7.87402, -8.75984 0.00000 9.44882, -8.76990 0.07642 9.44882, -8.79940 0.14764 9.44882, -8.84633 0.20879 9.44882, -8.90748 0.25572 9.44882, -8.97870 0.28521 9.44882, -9.05512 0.29528 9.44882, -9.13154 0.28521 9.44882, -9.20276 0.25572 9.44882, -9.26391 0.20879 9.44882, -9.31083 0.14764 9.44882, -9.34033 0.07642 9.44882, -9.35039 0.00000 9.44882, -9.34033 -0.07642 9.44882, -9.31083 -0.14764 9.44882, -9.26391 -0.20879 9.44882, -9.20276 -0.25572 9.44882, -9.13154 -0.28521 9.44882, -9.05512 -0.29528 9.44882, -8.97870 -0.28521 9.44882, -8.90748 -0.25572 9.44882, -8.84633 -0.20879 9.44882, -8.79940 -0.14764 9.44882, -8.76990 -0.07642 9.44882 ] } coordIndex [ 0 1 25 24 -1 1 2 26 25 -1 2 3 27 26 -1 3 4 28 27 -1 4 5 29 28 -1 5 6 30 29 -1 6 7 31 30 -1 7 8 32 31 -1 8 9 33 32 -1 9 10 34 33 -1 10 11 35 34 -1 11 12 36 35 -1 12 13 37 36 -1 13 14 38 37 -1 14 15 39 38 -1 15 16 40 39 -1 16 17 41 40 -1 17 18 42 41 -1 18 19 43 42 -1 19 20 44 43 -1 20 21 45 44 -1 21 22 46 45 -1 22 23 47 46 -1 23 0 24 47 -1 23 22 21 20 19 18 17 16 15 14 13 12 11 10 9 8 7 6 5 4 3 2 1 0 -1 24 25 26 27 28 29 30 31 32 33 34 35 36 37 38 39 40 41 42 43 44 45 46 47 -1 ] } }
Shape { appearance Appearance { material Material { diffuseColor 0.62 0.64 0.66 specularColor 0.3 0.3 0.3 shininess 0.4 transparency 0.0 } } geometry IndexedFaceSet { solid FALSE coord Coordinate { point [ 9.64567 0.00000 0.00000, 9.62555 0.15285 0.00000, 9.56655 0.29528 0.00000, 9.47270 0.41758 0.00000, 9.35039 0.51143 0.00000, 9.20796 0.57043 0.00000, 9.05512 0.59055 0.00000, 8.90227 0.57043 0.00000, 8.75984 0.51143 0.00000, 8.63754 0.41758 0.00000, 8.54369 0.29528 0.00000, 8.48469 0.15285 0.00000, 8.46457 0.00000 0.00000, 8.48469 -0.15285 0.00000, 8.54369 -0.29528 0.00000, 8.63754 -0.41758 0.00000, 8.75984 -0.51143 0.00000, 8.90227 -0.57043 0.00000, 9.05512 -0.59055 0.00000, 9.20796 -0.57043 0.00000, 9.35039 -0.51143 0.00000, 9.47270 -0.41758 0.00000, 9.56655 -0.29528 0.00000, 9.62555 -0.15285 0.00000, 9.64567 0.00000 7.87402, 9.62555 0.15285 7.87402, 9.56655 0.29528 7.87402, 9.47270 0.41758 7.87402, 9.35039 0.51143 7.87402, 9.20796 0.57043 7.87402, 9.05512 0.59055 7.87402, 8.90227 0.57043 7.87402, 8.75984 0.51143 7.87402, 8.63754 0.41758 7.87402, 8.54369 0.29528 7.87402, 8.48469 0.15285 7.87402, 8.46457 0.00000 7.87402, 8.48469 -0.15285 7.87402, 8.54369 -0.29528 7.87402, 8.63754 -0.41758 7.87402, 8.75984 -0.51143 7.87402, 8.90227 -0.57043 7.87402, 9.05512 -0.59055 7.87402, 9.20796 -0.57043 7.87402, 9.35039 -0.51143 7.87402, 9.47270 -0.41758 7.87402, 9.56655 -0.29528 7.87402, 9.62555 -0.15285 7.87402 ] } coordIndex [ 0 1 25 24 -1 1 2 26 25 -1 2 3 27 26 -1 3 4 28 27 -1 4 5 29 28 -1 5 6 30 29 -1 6 7 31 30 -1 7 8 32 31 -1 8 9 33 32 -1 9 10 34 33 -1 10 11 35 34 -1 11 12 36 35 -1 12 13 37 36 -1 13 14 38 37 -1 14 15 39 38 -1 15 16 40 39 -1 16 17 41 40 -1 17 18 42 41 -1 18 19 43 42 -1 19 20 44 43 -1 20 21 45 44 -1 21 22 46 45 -1 22 23 47 46 -1 23 0 24 47 -1 23 22 21 20 19 18 17 16 15 14 13 12 11 10 9 8 7 6 5 4 3 2 1 0 -1 24 25 26 27 28 29 30 31 32 33 34 35 36 37 38 39 40 41 42 43 44 45 46 47 -1 ] } }
Shape { appearance Appearance { material Material { diffuseColor 0.62 0.64 0.66 specularColor 0.3 0.3 0.3 shininess 0.4 transparency 0.0 } } geometry IndexedFaceSet { solid FALSE coord Coordinate { point [ 9.64567 0.00000 7.87402, 9.62555 0.15285 7.87402, 9.56655 0.29528 7.87402, 9.47270 0.41758 7.87402, 9.35039 0.51143 7.87402, 9.20796 0.57043 7.87402, 9.05512 0.59055 7.87402, 8.90227 0.57043 7.87402, 8.75984 0.51143 7.87402, 8.63754 0.41758 7.87402, 8.54369 0.29528 7.87402, 8.48469 0.15285 7.87402, 8.46457 0.00000 7.87402, 8.48469 -0.15285 7.87402, 8.54369 -0.29528 7.87402, 8.63754 -0.41758 7.87402, 8.75984 -0.51143 7.87402, 8.90227 -0.57043 7.87402, 9.05512 -0.59055 7.87402, 9.20796 -0.57043 7.87402, 9.35039 -0.51143 7.87402, 9.47270 -0.41758 7.87402, 9.56655 -0.29528 7.87402, 9.62555 -0.15285 7.87402, 9.35039 0.00000 9.44882, 9.34033 0.07642 9.44882, 9.31083 0.14764 9.44882, 9.26391 0.20879 9.44882, 9.20276 0.25572 9.44882, 9.13154 0.28521 9.44882, 9.05512 0.29528 9.44882, 8.97870 0.28521 9.44882, 8.90748 0.25572 9.44882, 8.84633 0.20879 9.44882, 8.79940 0.14764 9.44882, 8.76990 0.07642 9.44882, 8.75984 0.00000 9.44882, 8.76990 -0.07642 9.44882, 8.79940 -0.14764 9.44882, 8.84633 -0.20879 9.44882, 8.90748 -0.25572 9.44882, 8.97870 -0.28521 9.44882, 9.05512 -0.29528 9.44882, 9.13154 -0.28521 9.44882, 9.20276 -0.25572 9.44882, 9.26391 -0.20879 9.44882, 9.31083 -0.14764 9.44882, 9.34033 -0.07642 9.44882 ] } coordIndex [ 0 1 25 24 -1 1 2 26 25 -1 2 3 27 26 -1 3 4 28 27 -1 4 5 29 28 -1 5 6 30 29 -1 6 7 31 30 -1 7 8 32 31 -1 8 9 33 32 -1 9 10 34 33 -1 10 11 35 34 -1 11 12 36 35 -1 12 13 37 36 -1 13 14 38 37 -1 14 15 39 38 -1 15 16 40 39 -1 16 17 41 40 -1 17 18 42 41 -1 18 19 43 42 -1 19 20 44 43 -1 20 21 45 44 -1 21 22 46 45 -1 22 23 47 46 -1 23 0 24 47 -1 23 22 21 20 19 18 17 16 15 14 13 12 11 10 9 8 7 6 5 4 3 2 1 0 -1 24 25 26 27 28 29 30 31 32 33 34 35 36 37 38 39 40 41 42 43 44 45 46 47 -1 ] } }
Transform { translation 0.00000 0.39370 4.72441 children [ Shape { appearance Appearance { material Material { diffuseColor 0.85 0.85 0.8 specularColor 0.3 0.3 0.3 shininess 0.4 transparency 0.65 } } geometry Box { size 14.96063 5.51181 1.57480 } } ] }
