#VRML V2.0 utf8
Shape { appearance Appearance { material Material { diffuseColor 0.83 0.69 0.22 specularColor 0.3 0.3 0.3 shininess 0.4 transparency 0.0 } } geometry IndexedFaceSet { solid FALSE coord Coordinate { point [ 6.69291 1.57480 0.00000, 6.66608 1.77860 0.00000, 6.58742 1.96850 0.00000, 6.46229 2.13158 0.00000, 6.29921 2.25671 0.00000, 6.10931 2.33537 0.00000, 5.90551 2.36220 0.00000, 5.70172 2.33537 0.00000, 5.51181 2.25671 0.00000, 5.34873 2.13158 0.00000, 5.22360 1.96850 0.00000, 5.14494 1.77860 0.00000, 5.11811 1.57480 0.00000, 5.14494 1.37101 0.00000, 5.22360 1.18110 0.00000, 5.34873 1.01803 0.00000, 5.51181 0.89289 0.00000, 5.70172 0.81423 0.00000, 5.90551 0.78740 0.00000, 6.10931 0.81423 0.00000, 6.29921 0.89289 0.00000, 6.46229 1.01803 0.00000, 6.58742 1.18110 0.00000, 6.66608 1.37101 0.00000, 6.69291 1.57480 0.02362, 6.66608 1.77860 0.02362, 6.58742 1.96850 0.02362, 6.46229 2.13158 0.02362, 6.29921 2.25671 0.02362, 6.10931 2.33537 0.02362, 5.90551 2.36220 0.02362, 5.70172 2.33537 0.02362, 5.51181 2.25671 0.02362, 5.34873 2.13158 0.02362, 5.22360 1.96850 0.02362, 5.14494 1.77860 0.02362, 5.11811 1.57480 0.02362, 5.14494 1.37101 0.02362, 5.22360 1.18110 0.02362, 5.34873 1.01803 0.02362, 5.51181 0.89289 0.02362, 5.70172 0.81423 0.02362, 5.90551 0.78740 0.02362, 6.10931 0.81423 0.02362, 6.29921 0.89289 0.02362, 6.46229 1.01803 0.02362, 6.58742 1.18110 0.02362, 6.66608 1.37101 0.02362 ] } coordIndex [ 0 1 25 24 -1 1 2 26 25 -1 2 3 27 26 -1 3 4 28 27 -1 4 5 29 28 -1 5 6 30 29 -1 6 7 31 30 -1 7 8 32 31 -1 8 9 33 32 -1 9 10 34 33 -1 10 11 35 34 -1 11 12 36 35 -1 12 13 37 36 -1 13 14 38 37 -1 14 15 39 38 -1 15 16 40 39 -1 16 17 41 40 -1 17 18 42 41 -1 18 19 43 42 -1 19 20 44 43 -1 20 21 45 44 -1 21 22 46 45 -1 22 23 47 46 -1 23 0 24 47 -1 23 22 21 20 19 18 17 16 15 14 13 12 11 10 9 8 7 6 5 4 3 2 1 0 -1 24 25 26 27 28 29 30 31 32 33 34 35 36 37 38 39 40 41 42 43 44 45 46 47 -1 ] } }
Shape { appearance Appearance { material Material { diffuseColor 0.83 0.69 0.22 specularColor 0.3 0.3 0.3 shininess 0.4 transparency 0.0 } } geometry IndexedFaceSet { solid FALSE coord Coordinate { point [ 4.33071 1.57480 0.00000, 4.30388 1.77860 0.00000, 4.22522 1.96850 0.00000, 4.10008 2.13158 0.00000, 3.93701 2.25671 0.00000, 3.74710 2.33537 0.00000, 3.54331 2.36220 0.00000, 3.33951 2.33537 0.00000, 3.14961 2.25671 0.00000, 2.98653 2.13158 0.00000, 2.86140 1.96850 0.00000, 2.78274 1.77860 0.00000, 2.75591 1.57480 0.00000, 2.78274 1.37101 0.00000, 2.86140 1.18110 0.00000, 2.98653 1.01803 0.00000, 3.14961 0.89289 0.00000, 3.33951 0.81423 0.00000, 3.54331 0.78740 0.00000, 3.74710 0.81423 0.00000, 3.93701 0.89289 0.00000, 4.10008 1.01803 0.00000, 4.22522 1.18110 0.00000, 4.30388 1.37101 0.00000, 4.33071 1.57480 0.02362, 4.30388 1.77860 0.02362, 4.22522 1.96850 0.02362, 4.10008 2.13158 0.02362, 3.93701 2.25671 0.02362, 3.74710 2.33537 0.02362, 3.54331 2.36220 0.02362, 3.33951 2.33537 0.02362, 3.14961 2.25671 0.02362, 2.98653 2.13158 0.02362, 2.86140 1.96850 0.02362, 2.78274 1.77860 0.02362, 2.75591 1.57480 0.02362, 2.78274 1.37101 0.02362, 2.86140 1.18110 0.02362, 2.98653 1.01803 0.02362, 3.14961 0.89289 0.02362, 3.33951 0.81423 0.02362, 3.54331 0.78740 0.02362, 3.74710 0.81423 0.02362, 3.93701 0.89289 0.02362, 4.10008 1.01803 0.02362, 4.22522 1.18110 0.02362, 4.30388 1.37101 0.02362 ] } coordIndex [ 0 1 25 24 -1 1 2 26 25 -1 2 3 27 26 -1 3 4 28 27 -1 4 5 29 28 -1 5 6 30 29 -1 6 7 31 30 -1 7 8 32 31 -1 8 9 33 32 -1 9 10 34 33 -1 10 11 35 34 -1 11 12 36 35 -1 12 13 37 36 -1 13 14 38 37 -1 14 15 39 38 -1 15 16 40 39 -1 16 17 41 40 -1 17 18 42 41 -1 18 19 43 42 -1 19 20 44 43 -1 20 21 45 44 -1 21 22 46 45 -1 22 23 47 46 -1 23 0 24 47 -1 23 22 21 20 19 18 17 16 15 14 13 12 11 10 9 8 7 6 5 4 3 2 1 0 -1 24 25 26 27 28 29 30 31 32 33 34 35 36 37 38 39 40 41 42 43 44 45 46 47 -1 ] } }
Shape { appearance Appearance { material Material { diffuseColor 0.83 0.69 0.22 specularColor 0.3 0.3 0.3 shininess 0.4 transparency 0.0 } } geometry IndexedFaceSet { solid FALSE coord Coordinate { point [ 1.96850 1.57480 0.00000, 1.94167 1.77860 0.00000, 1.86301 1.96850 0.00000, 1.73788 2.13158 0.00000, 1.57480 2.25671 0.00000, 1.38490 2.33537 0.00000, 1.18110 2.36220 0.00000, 0.97731 2.33537 0.00000, 0.78740 2.25671 0.00000, 0.62433 2.13158 0.00000, 0.49919 1.96850 0.00000, 0.42053 1.77860 0.00000, 0.39370 1.57480 0.00000, 0.42053 1.37101 0.00000, 0.49919 1.18110 0.00000, 0.62433 1.01803 0.00000, 0.78740 0.89289 0.00000, 0.97731 0.81423 0.00000, 1.18110 0.78740 0.00000, 1.38490 0.81423 0.00000, 1.57480 0.89289 0.00000, 1.73788 1.01803 0.00000, 1.86301 1.18110 0.00000, 1.94167 1.37101 0.00000, 1.96850 1.57480 0.02362, 1.94167 1.77860 0.02362, 1.86301 1.96850 0.02362, 1.73788 2.13158 0.02362, 1.57480 2.25671 0.02362, 1.38490 2.33537 0.02362, 1.18110 2.36220 0.02362, 0.97731 2.33537 0.02362, 0.78740 2.25671 0.02362, 0.62433 2.13158 0.02362, 0.49919 1.96850 0.02362, 0.42053 1.77860 0.02362, 0.39370 1.57480 0.02362, 0.42053 1.37101 0.02362, 0.49919 1.18110 0.02362, 0.62433 1.01803 0.02362, 0.78740 0.89289 0.02362, 0.97731 0.81423 0.02362, 1.18110 0.78740 0.02362, 1.38490 0.81423 0.02362, 1.57480 0.89289 0.02362, 1.73788 1.01803 0.02362, 1.86301 1.18110 0.02362, 1.94167 1.37101 0.02362 ] } coordIndex [ 0 1 25 24 -1 1 2 26 25 -1 2 3 27 26 -1 3 4 28 27 -1 4 5 29 28 -1 5 6 30 29 -1 6 7 31 30 -1 7 8 32 31 -1 8 9 33 32 -1 9 10 34 33 -1 10 11 35 34 -1 11 12 36 35 -1 12 13 37 36 -1 13 14 38 37 -1 14 15 39 38 -1 15 16 40 39 -1 16 17 41 40 -1 17 18 42 41 -1 18 19 43 42 -1 19 20 44 43 -1 20 21 45 44 -1 21 22 46 45 -1 22 23 47 46 -1 23 0 24 47 -1 23 22 21 20 19 18 17 16 15 14 13 12 11 10 9 8 7 6 5 4 3 2 1 0 -1 24 25 26 27 28 29 30 31 32 33 34 35 36 37 38 39 40 41 42 43 44 45 46 47 -1 ] } }
Shape { appearance Appearance { material Material { diffuseColor 0.83 0.69 0.22 specularColor 0.3 0.3 0.3 shininess 0.4 transparency 0.0 } } geometry IndexedFaceSet { solid FALSE coord Coordinate { point [ -0.39370 1.57480 0.00000, -0.42053 1.77860 0.00000, -0.49919 1.96850 0.00000, -0.62433 2.13158 0.00000, -0.78740 2.25671 0.00000, -0.97731 2.33537 0.00000, -1.18110 2.36220 0.00000, -1.38490 2.33537 0.00000, -1.57480 2.25671 0.00000, -1.73788 2.13158 0.00000, -1.86301 1.96850 0.00000, -1.94167 1.77860 0.00000, -1.96850 1.57480 0.00000, -1.94167 1.37101 0.00000, -1.86301 1.18110 0.00000, -1.73788 1.01803 0.00000, -1.57480 0.89289 0.00000, -1.38490 0.81423 0.00000, -1.18110 0.78740 0.00000, -0.97731 0.81423 0.00000, -0.78740 0.89289 0.00000, -0.62433 1.01803 0.00000, -0.49919 1.18110 0.00000, -0.42053 1.37101 0.00000, -0.39370 1.57480 0.02362, -0.42053 1.77860 0.02362, -0.49919 1.96850 0.02362, -0.62433 2.13158 0.02362, -0.78740 2.25671 0.02362, -0.97731 2.33537 0.02362, -1.18110 2.36220 0.02362, -1.38490 2.33537 0.02362, -1.57480 2.25671 0.02362, -1.73788 2.13158 0.02362, -1.86301 1.96850 0.02362, -1.94167 1.77860 0.02362, -1.96850 1.57480 0.02362, -1.94167 1.37101 0.02362, -1.86301 1.18110 0.02362, -1.73788 1.01803 0.02362, -1.57480 0.89289 0.02362, -1.38490 0.81423 0.02362, -1.18110 0.78740 0.02362, -0.97731 0.81423 0.02362, -0.78740 0.89289 0.02362, -0.62433 1.01803 0.02362, -0.49919 1.18110 0.02362, -0.42053 1.37101 0.02362 ] } coordIndex [ 0 1 25 24 -1 1 2 26 25 -1 2 3 27 26 -1 3 4 28 27 -1 4 5 29 28 -1 5 6 30 29 -1 6 7 31 30 -1 7 8 32 31 -1 8 9 33 32 -1 9 10 34 33 -1 10 11 35 34 -1 11 12 36 35 -1 12 13 37 36 -1 13 14 38 37 -1 14 15 39 38 -1 15 16 40 39 -1 16 17 41 40 -1 17 18 42 41 -1 18 19 43 42 -1 19 20 44 43 -1 20 21 45 44 -1 21 22 46 45 -1 22 23 47 46 -1 23 0 24 47 -1 23 22 21 20 19 18 17 16 15 14 13 12 11 10 9 8 7 6 5 4 3 2 1 0 -1 24 25 26 27 28 29 30 31 32 33 34 35 36 37 38 39 40 41 42 43 44 45 46 47 -1 ] } }
Shape { appearance Appearance { material Material { diffuseColor 0.83 0.69 0.22 specularColor 0.3 0.3 0.3 shininess 0.4 transparency 0.0 } } geometry IndexedFaceSet { solid FALSE coord Coordinate { point [ 6.25984 -0.19685 0.00000, 6.24777 -0.10514 0.00000, 6.21237 -0.01969 0.00000, 6.15606 0.05370 0.00000, 6.08268 0.11001 0.00000, 5.99722 0.14541 0.00000, 5.90551 0.15748 0.00000, 5.81380 0.14541 0.00000, 5.72835 0.11001 0.00000, 5.65496 0.05370 0.00000, 5.59865 -0.01969 0.00000, 5.56325 -0.10514 0.00000, 5.55118 -0.19685 0.00000, 5.56325 -0.28856 0.00000, 5.59865 -0.37402 0.00000, 5.65496 -0.44740 0.00000, 5.72835 -0.50371 0.00000, 5.81380 -0.53911 0.00000, 5.90551 -0.55118 0.00000, 5.99722 -0.53911 0.00000, 6.08268 -0.50371 0.00000, 6.15606 -0.44740 0.00000, 6.21237 -0.37402 0.00000, 6.24777 -0.28856 0.00000, 6.25984 -0.19685 0.02362, 6.24777 -0.10514 0.02362, 6.21237 -0.01969 0.02362, 6.15606 0.05370 0.02362, 6.08268 0.11001 0.02362, 5.99722 0.14541 0.02362, 5.90551 0.15748 0.02362, 5.81380 0.14541 0.02362, 5.72835 0.11001 0.02362, 5.65496 0.05370 0.02362, 5.59865 -0.01969 0.02362, 5.56325 -0.10514 0.02362, 5.55118 -0.19685 0.02362, 5.56325 -0.28856 0.02362, 5.59865 -0.37402 0.02362, 5.65496 -0.44740 0.02362, 5.72835 -0.50371 0.02362, 5.81380 -0.53911 0.02362, 5.90551 -0.55118 0.02362, 5.99722 -0.53911 0.02362, 6.08268 -0.50371 0.02362, 6.15606 -0.44740 0.02362, 6.21237 -0.37402 0.02362, 6.24777 -0.28856 0.02362 ] } coordIndex [ 0 1 25 24 -1 1 2 26 25 -1 2 3 27 26 -1 3 4 28 27 -1 4 5 29 28 -1 5 6 30 29 -1 6 7 31 30 -1 7 8 32 31 -1 8 9 33 32 -1 9 10 34 33 -1 10 11 35 34 -1 11 12 36 35 -1 12 13 37 36 -1 13 14 38 37 -1 14 15 39 38 -1 15 16 40 39 -1 16 17 41 40 -1 17 18 42 41 -1 18 19 43 42 -1 19 20 44 43 -1 20 21 45 44 -1 21 22 46 45 -1 22 23 47 46 -1 23 0 24 47 -1 23 22 21 20 19 18 17 16 15 14 13 12 11 10 9 8 7 6 5 4 3 2 1 0 -1 24 25 26 27 28 29 30 31 32 33 34 35 36 37 38 39 40 41 42 43 44 45 46 47 -1 ] } }
Shape { appearance Appearance { material Material { diffuseColor 0.83 0.69 0.22 specularColor 0.3 0.3 0.3 shininess 0.4 transparency 0.0 } } geometry IndexedFaceSet { solid FALSE coord Coordinate { point [ 5.07874 -0.19685 0.00000, 5.06667 -0.10514 0.00000, 5.03127 -0.01969 0.00000, 4.97496 0.05370 0.00000, 4.90157 0.11001 0.00000, 4.81612 0.14541 0.00000, 4.72441 0.15748 0.00000, 4.63270 0.14541 0.00000, 4.54724 0.11001 0.00000, 4.47386 0.05370 0.00000, 4.41755 -0.01969 0.00000, 4.38215 -0.10514 0.00000, 4.37008 -0.19685 0.00000, 4.38215 -0.28856 0.00000, 4.41755 -0.37402 0.00000, 4.47386 -0.44740 0.00000, 4.54724 -0.50371 0.00000, 4.63270 -0.53911 0.00000, 4.72441 -0.55118 0.00000, 4.81612 -0.53911 0.00000, 4.90157 -0.50371 0.00000, 4.97496 -0.44740 0.00000, 5.03127 -0.37402 0.00000, 5.06667 -0.28856 0.00000, 5.07874 -0.19685 0.02362, 5.06667 -0.10514 0.02362, 5.03127 -0.01969 0.02362, 4.97496 0.05370 0.02362, 4.90157 0.11001 0.02362, 4.81612 0.14541 0.02362, 4.72441 0.15748 0.02362, 4.63270 0.14541 0.02362, 4.54724 0.11001 0.02362, 4.47386 0.05370 0.02362, 4.41755 -0.01969 0.02362, 4.38215 -0.10514 0.02362, 4.37008 -0.19685 0.02362, 4.38215 -0.28856 0.02362, 4.41755 -0.37402 0.02362, 4.47386 -0.44740 0.02362, 4.54724 -0.50371 0.02362, 4.63270 -0.53911 0.02362, 4.72441 -0.55118 0.02362, 4.81612 -0.53911 0.02362, 4.90157 -0.50371 0.02362, 4.97496 -0.44740 0.02362, 5.03127 -0.37402 0.02362, 5.06667 -0.28856 0.02362 ] } coordIndex [ 0 1 25 24 -1 1 2 26 25 -1 2 3 27 26 -1 3 4 28 27 -1 4 5 29 28 -1 5 6 30 29 -1 6 7 31 30 -1 7 8 32 31 -1 8 9 33 32 -1 9 10 34 33 -1 10 11 35 34 -1 11 12 36 35 -1 12 13 37 36 -1 13 14 38 37 -1 14 15 39 38 -1 15 16 40 39 -1 16 17 41 40 -1 17 18 42 41 -1 18 19 43 42 -1 19 20 44 43 -1 20 21 45 44 -1 21 22 46 45 -1 22 23 47 46 -1 23 0 24 47 -1 23 22 21 20 19 18 17 16 15 14 13 12 11 10 9 8 7 6 5 4 3 2 1 0 -1 24 25 26 27 28 29 30 31 32 33 34 35 36 37 38 39 40 41 42 43 44 45 46 47 -1 ] } }
Shape { appearance Appearance { material Material { diffuseColor 0.83 0.69 0.22 specularColor 0.3 0.3 0.3 shininess 0.4 transparency 0.0 } } geometry IndexedFaceSet { solid FALSE coord Coordinate { point [ 3.89764 -0.19685 0.00000, 3.88556 -0.10514 0.00000, 3.85017 -0.01969 0.00000, 3.79386 0.05370 0.00000, 3.72047 0.11001 0.00000, 3.63501 0.14541 0.00000, 3.54331 0.15748 0.00000, 3.45160 0.14541 0.00000, 3.36614 0.11001 0.00000, 3.29276 0.05370 0.00000, 3.23645 -0.01969 0.00000, 3.20105 -0.10514 0.00000, 3.18898 -0.19685 0.00000, 3.20105 -0.28856 0.00000, 3.23645 -0.37402 0.00000, 3.29276 -0.44740 0.00000, 3.36614 -0.50371 0.00000, 3.45160 -0.53911 0.00000, 3.54331 -0.55118 0.00000, 3.63501 -0.53911 0.00000, 3.72047 -0.50371 0.00000, 3.79386 -0.44740 0.00000, 3.85017 -0.37402 0.00000, 3.88556 -0.28856 0.00000, 3.89764 -0.19685 0.02362, 3.88556 -0.10514 0.02362, 3.85017 -0.01969 0.02362, 3.79386 0.05370 0.02362, 3.72047 0.11001 0.02362, 3.63501 0.14541 0.02362, 3.54331 0.15748 0.02362, 3.45160 0.14541 0.02362, 3.36614 0.11001 0.02362, 3.29276 0.05370 0.02362, 3.23645 -0.01969 0.02362, 3.20105 -0.10514 0.02362, 3.18898 -0.19685 0.02362, 3.20105 -0.28856 0.02362, 3.23645 -0.37402 0.02362, 3.29276 -0.44740 0.02362, 3.36614 -0.50371 0.02362, 3.45160 -0.53911 0.02362, 3.54331 -0.55118 0.02362, 3.63501 -0.53911 0.02362, 3.72047 -0.50371 0.02362, 3.79386 -0.44740 0.02362, 3.85017 -0.37402 0.02362, 3.88556 -0.28856 0.02362 ] } coordIndex [ 0 1 25 24 -1 1 2 26 25 -1 2 3 27 26 -1 3 4 28 27 -1 4 5 29 28 -1 5 6 30 29 -1 6 7 31 30 -1 7 8 32 31 -1 8 9 33 32 -1 9 10 34 33 -1 10 11 35 34 -1 11 12 36 35 -1 12 13 37 36 -1 13 14 38 37 -1 14 15 39 38 -1 15 16 40 39 -1 16 17 41 40 -1 17 18 42 41 -1 18 19 43 42 -1 19 20 44 43 -1 20 21 45 44 -1 21 22 46 45 -1 22 23 47 46 -1 23 0 24 47 -1 23 22 21 20 19 18 17 16 15 14 13 12 11 10 9 8 7 6 5 4 3 2 1 0 -1 24 25 26 27 28 29 30 31 32 33 34 35 36 37 38 39 40 41 42 43 44 45 46 47 -1 ] } }
Shape { appearance Appearance { material Material { diffuseColor 0.83 0.69 0.22 specularColor 0.3 0.3 0.3 shininess 0.4 transparency 0.0 } } geometry IndexedFaceSet { solid FALSE coord Coordinate { point [ 2.71654 -0.19685 0.00000, 2.70446 -0.10514 0.00000, 2.66906 -0.01969 0.00000, 2.61275 0.05370 0.00000, 2.53937 0.11001 0.00000, 2.45391 0.14541 0.00000, 2.36220 0.15748 0.00000, 2.27050 0.14541 0.00000, 2.18504 0.11001 0.00000, 2.11166 0.05370 0.00000, 2.05535 -0.01969 0.00000, 2.01995 -0.10514 0.00000, 2.00787 -0.19685 0.00000, 2.01995 -0.28856 0.00000, 2.05535 -0.37402 0.00000, 2.11166 -0.44740 0.00000, 2.18504 -0.50371 0.00000, 2.27050 -0.53911 0.00000, 2.36220 -0.55118 0.00000, 2.45391 -0.53911 0.00000, 2.53937 -0.50371 0.00000, 2.61275 -0.44740 0.00000, 2.66906 -0.37402 0.00000, 2.70446 -0.28856 0.00000, 2.71654 -0.19685 0.02362, 2.70446 -0.10514 0.02362, 2.66906 -0.01969 0.02362, 2.61275 0.05370 0.02362, 2.53937 0.11001 0.02362, 2.45391 0.14541 0.02362, 2.36220 0.15748 0.02362, 2.27050 0.14541 0.02362, 2.18504 0.11001 0.02362, 2.11166 0.05370 0.02362, 2.05535 -0.01969 0.02362, 2.01995 -0.10514 0.02362, 2.00787 -0.19685 0.02362, 2.01995 -0.28856 0.02362, 2.05535 -0.37402 0.02362, 2.11166 -0.44740 0.02362, 2.18504 -0.50371 0.02362, 2.27050 -0.53911 0.02362, 2.36220 -0.55118 0.02362, 2.45391 -0.53911 0.02362, 2.53937 -0.50371 0.02362, 2.61275 -0.44740 0.02362, 2.66906 -0.37402 0.02362, 2.70446 -0.28856 0.02362 ] } coordIndex [ 0 1 25 24 -1 1 2 26 25 -1 2 3 27 26 -1 3 4 28 27 -1 4 5 29 28 -1 5 6 30 29 -1 6 7 31 30 -1 7 8 32 31 -1 8 9 33 32 -1 9 10 34 33 -1 10 11 35 34 -1 11 12 36 35 -1 12 13 37 36 -1 13 14 38 37 -1 14 15 39 38 -1 15 16 40 39 -1 16 17 41 40 -1 17 18 42 41 -1 18 19 43 42 -1 19 20 44 43 -1 20 21 45 44 -1 21 22 46 45 -1 22 23 47 46 -1 23 0 24 47 -1 23 22 21 20 19 18 17 16 15 14 13 12 11 10 9 8 7 6 5 4 3 2 1 0 -1 24 25 26 27 28 29 30 31 32 33 34 35 36 37 38 39 40 41 42 43 44 45 46 47 -1 ] } }
Shape { appearance Appearance { material Material { diffuseColor 0.83 0.69 0.22 specularColor 0.3 0.3 0.3 shininess 0.4 transparency 0.0 } } geometry IndexedFaceSet { solid FALSE coord Coordinate { point [ 1.53543 -0.19685 0.00000, 1.52336 -0.10514 0.00000, 1.48796 -0.01969 0.00000, 1.43165 0.05370 0.00000, 1.35827 0.11001 0.00000, 1.27281 0.14541 0.00000, 1.18110 0.15748 0.00000, 1.08939 0.14541 0.00000, 1.00394 0.11001 0.00000, 0.93055 0.05370 0.00000, 0.87424 -0.01969 0.00000, 0.83885 -0.10514 0.00000, 0.82677 -0.19685 0.00000, 0.83885 -0.28856 0.00000, 0.87424 -0.37402 0.00000, 0.93055 -0.44740 0.00000, 1.00394 -0.50371 0.00000, 1.08939 -0.53911 0.00000, 1.18110 -0.55118 0.00000, 1.27281 -0.53911 0.00000, 1.35827 -0.50371 0.00000, 1.43165 -0.44740 0.00000, 1.48796 -0.37402 0.00000, 1.52336 -0.28856 0.00000, 1.53543 -0.19685 0.02362, 1.52336 -0.10514 0.02362, 1.48796 -0.01969 0.02362, 1.43165 0.05370 0.02362, 1.35827 0.11001 0.02362, 1.27281 0.14541 0.02362, 1.18110 0.15748 0.02362, 1.08939 0.14541 0.02362, 1.00394 0.11001 0.02362, 0.93055 0.05370 0.02362, 0.87424 -0.01969 0.02362, 0.83885 -0.10514 0.02362, 0.82677 -0.19685 0.02362, 0.83885 -0.28856 0.02362, 0.87424 -0.37402 0.02362, 0.93055 -0.44740 0.02362, 1.00394 -0.50371 0.02362, 1.08939 -0.53911 0.02362, 1.18110 -0.55118 0.02362, 1.27281 -0.53911 0.02362, 1.35827 -0.50371 0.02362, 1.43165 -0.44740 0.02362, 1.48796 -0.37402 0.02362, 1.52336 -0.28856 0.02362 ] } coordIndex [ 0 1 25 24 -1 1 2 26 25 -1 2 3 27 26 -1 3 4 28 27 -1 4 5 29 28 -1 5 6 30 29 -1 6 7 31 30 -1 7 8 32 31 -1 8 9 33 32 -1 9 10 34 33 -1 10 11 35 34 -1 11 12 36 35 -1 12 13 37 36 -1 13 14 38 37 -1 14 15 39 38 -1 15 16 40 39 -1 16 17 41 40 -1 17 18 42 41 -1 18 19 43 42 -1 19 20 44 43 -1 20 21 45 44 -1 21 22 46 45 -1 22 23 47 46 -1 23 0 24 47 -1 23 22 21 20 19 18 17 16 15 14 13 12 11 10 9 8 7 6 5 4 3 2 1 0 -1 24 25 26 27 28 29 30 31 32 33 34 35 36 37 38 39 40 41 42 43 44 45 46 47 -1 ] } }
Shape { appearance Appearance { material Material { diffuseColor 0.83 0.69 0.22 specularColor 0.3 0.3 0.3 shininess 0.4 transparency 0.0 } } geometry IndexedFaceSet { solid FALSE coord Coordinate { point [ 0.35433 -0.19685 0.00000, 0.34226 -0.10514 0.00000, 0.30686 -0.01969 0.00000, 0.25055 0.05370 0.00000, 0.17717 0.11001 0.00000, 0.09171 0.14541 0.00000, 0.00000 0.15748 0.00000, -0.09171 0.14541 0.00000, -0.17717 0.11001 0.00000, -0.25055 0.05370 0.00000, -0.30686 -0.01969 0.00000, -0.34226 -0.10514 0.00000, -0.35433 -0.19685 0.00000, -0.34226 -0.28856 0.00000, -0.30686 -0.37402 0.00000, -0.25055 -0.44740 0.00000, -0.17717 -0.50371 0.00000, -0.09171 -0.53911 0.00000, -0.00000 -0.55118 0.00000, 0.09171 -0.53911 0.00000, 0.17717 -0.50371 0.00000, 0.25055 -0.44740 0.00000, 0.30686 -0.37402 0.00000, 0.34226 -0.28856 0.00000, 0.35433 -0.19685 0.02362, 0.34226 -0.10514 0.02362, 0.30686 -0.01969 0.02362, 0.25055 0.05370 0.02362, 0.17717 0.11001 0.02362, 0.09171 0.14541 0.02362, 0.00000 0.15748 0.02362, -0.09171 0.14541 0.02362, -0.17717 0.11001 0.02362, -0.25055 0.05370 0.02362, -0.30686 -0.01969 0.02362, -0.34226 -0.10514 0.02362, -0.35433 -0.19685 0.02362, -0.34226 -0.28856 0.02362, -0.30686 -0.37402 0.02362, -0.25055 -0.44740 0.02362, -0.17717 -0.50371 0.02362, -0.09171 -0.53911 0.02362, -0.00000 -0.55118 0.02362, 0.09171 -0.53911 0.02362, 0.17717 -0.50371 0.02362, 0.25055 -0.44740 0.02362, 0.30686 -0.37402 0.02362, 0.34226 -0.28856 0.02362 ] } coordIndex [ 0 1 25 24 -1 1 2 26 25 -1 2 3 27 26 -1 3 4 28 27 -1 4 5 29 28 -1 5 6 30 29 -1 6 7 31 30 -1 7 8 32 31 -1 8 9 33 32 -1 9 10 34 33 -1 10 11 35 34 -1 11 12 36 35 -1 12 13 37 36 -1 13 14 38 37 -1 14 15 39 38 -1 15 16 40 39 -1 16 17 41 40 -1 17 18 42 41 -1 18 19 43 42 -1 19 20 44 43 -1 20 21 45 44 -1 21 22 46 45 -1 22 23 47 46 -1 23 0 24 47 -1 23 22 21 20 19 18 17 16 15 14 13 12 11 10 9 8 7 6 5 4 3 2 1 0 -1 24 25 26 27 28 29 30 31 32 33 34 35 36 37 38 39 40 41 42 43 44 45 46 47 -1 ] } }
Shape { appearance Appearance { material Material { diffuseColor 0.83 0.69 0.22 specularColor 0.3 0.3 0.3 shininess 0.4 transparency 0.0 } } geometry IndexedFaceSet { solid FALSE coord Coordinate { point [ 6.25984 -1.37795 0.00000, 6.24777 -1.28625 0.00000, 6.21237 -1.20079 0.00000, 6.15606 -1.12740 0.00000, 6.08268 -1.07109 0.00000, 5.99722 -1.03570 0.00000, 5.90551 -1.02362 0.00000, 5.81380 -1.03570 0.00000, 5.72835 -1.07109 0.00000, 5.65496 -1.12740 0.00000, 5.59865 -1.20079 0.00000, 5.56325 -1.28625 0.00000, 5.55118 -1.37795 0.00000, 5.56325 -1.46966 0.00000, 5.59865 -1.55512 0.00000, 5.65496 -1.62850 0.00000, 5.72835 -1.68481 0.00000, 5.81380 -1.72021 0.00000, 5.90551 -1.73228 0.00000, 5.99722 -1.72021 0.00000, 6.08268 -1.68481 0.00000, 6.15606 -1.62850 0.00000, 6.21237 -1.55512 0.00000, 6.24777 -1.46966 0.00000, 6.25984 -1.37795 0.02362, 6.24777 -1.28625 0.02362, 6.21237 -1.20079 0.02362, 6.15606 -1.12740 0.02362, 6.08268 -1.07109 0.02362, 5.99722 -1.03570 0.02362, 5.90551 -1.02362 0.02362, 5.81380 -1.03570 0.02362, 5.72835 -1.07109 0.02362, 5.65496 -1.12740 0.02362, 5.59865 -1.20079 0.02362, 5.56325 -1.28625 0.02362, 5.55118 -1.37795 0.02362, 5.56325 -1.46966 0.02362, 5.59865 -1.55512 0.02362, 5.65496 -1.62850 0.02362, 5.72835 -1.68481 0.02362, 5.81380 -1.72021 0.02362, 5.90551 -1.73228 0.02362, 5.99722 -1.72021 0.02362, 6.08268 -1.68481 0.02362, 6.15606 -1.62850 0.02362, 6.21237 -1.55512 0.02362, 6.24777 -1.46966 0.02362 ] } coordIndex [ 0 1 25 24 -1 1 2 26 25 -1 2 3 27 26 -1 3 4 28 27 -1 4 5 29 28 -1 5 6 30 29 -1 6 7 31 30 -1 7 8 32 31 -1 8 9 33 32 -1 9 10 34 33 -1 10 11 35 34 -1 11 12 36 35 -1 12 13 37 36 -1 13 14 38 37 -1 14 15 39 38 -1 15 16 40 39 -1 16 17 41 40 -1 17 18 42 41 -1 18 19 43 42 -1 19 20 44 43 -1 20 21 45 44 -1 21 22 46 45 -1 22 23 47 46 -1 23 0 24 47 -1 23 22 21 20 19 18 17 16 15 14 13 12 11 10 9 8 7 6 5 4 3 2 1 0 -1 24 25 26 27 28 29 30 31 32 33 34 35 36 37 38 39 40 41 42 43 44 45 46 47 -1 ] } }
Shape { appearance Appearance { material Material { diffuseColor 0.83 0.69 0.22 specularColor 0.3 0.3 0.3 shininess 0.4 transparency 0.0 } } geometry IndexedFaceSet { solid FALSE coord Coordinate { point [ 5.07874 -1.37795 0.00000, 5.06667 -1.28625 0.00000, 5.03127 -1.20079 0.00000, 4.97496 -1.12740 0.00000, 4.90157 -1.07109 0.00000, 4.81612 -1.03570 0.00000, 4.72441 -1.02362 0.00000, 4.63270 -1.03570 0.00000, 4.54724 -1.07109 0.00000, 4.47386 -1.12740 0.00000, 4.41755 -1.20079 0.00000, 4.38215 -1.28625 0.00000, 4.37008 -1.37795 0.00000, 4.38215 -1.46966 0.00000, 4.41755 -1.55512 0.00000, 4.47386 -1.62850 0.00000, 4.54724 -1.68481 0.00000, 4.63270 -1.72021 0.00000, 4.72441 -1.73228 0.00000, 4.81612 -1.72021 0.00000, 4.90157 -1.68481 0.00000, 4.97496 -1.62850 0.00000, 5.03127 -1.55512 0.00000, 5.06667 -1.46966 0.00000, 5.07874 -1.37795 0.02362, 5.06667 -1.28625 0.02362, 5.03127 -1.20079 0.02362, 4.97496 -1.12740 0.02362, 4.90157 -1.07109 0.02362, 4.81612 -1.03570 0.02362, 4.72441 -1.02362 0.02362, 4.63270 -1.03570 0.02362, 4.54724 -1.07109 0.02362, 4.47386 -1.12740 0.02362, 4.41755 -1.20079 0.02362, 4.38215 -1.28625 0.02362, 4.37008 -1.37795 0.02362, 4.38215 -1.46966 0.02362, 4.41755 -1.55512 0.02362, 4.47386 -1.62850 0.02362, 4.54724 -1.68481 0.02362, 4.63270 -1.72021 0.02362, 4.72441 -1.73228 0.02362, 4.81612 -1.72021 0.02362, 4.90157 -1.68481 0.02362, 4.97496 -1.62850 0.02362, 5.03127 -1.55512 0.02362, 5.06667 -1.46966 0.02362 ] } coordIndex [ 0 1 25 24 -1 1 2 26 25 -1 2 3 27 26 -1 3 4 28 27 -1 4 5 29 28 -1 5 6 30 29 -1 6 7 31 30 -1 7 8 32 31 -1 8 9 33 32 -1 9 10 34 33 -1 10 11 35 34 -1 11 12 36 35 -1 12 13 37 36 -1 13 14 38 37 -1 14 15 39 38 -1 15 16 40 39 -1 16 17 41 40 -1 17 18 42 41 -1 18 19 43 42 -1 19 20 44 43 -1 20 21 45 44 -1 21 22 46 45 -1 22 23 47 46 -1 23 0 24 47 -1 23 22 21 20 19 18 17 16 15 14 13 12 11 10 9 8 7 6 5 4 3 2 1 0 -1 24 25 26 27 28 29 30 31 32 33 34 35 36 37 38 39 40 41 42 43 44 45 46 47 -1 ] } }
Shape { appearance Appearance { material Material { diffuseColor 0.83 0.69 0.22 specularColor 0.3 0.3 0.3 shininess 0.4 transparency 0.0 } } geometry IndexedFaceSet { solid FALSE coord Coordinate { point [ 3.89764 -1.37795 0.00000, 3.88556 -1.28625 0.00000, 3.85017 -1.20079 0.00000, 3.79386 -1.12740 0.00000, 3.72047 -1.07109 0.00000, 3.63501 -1.03570 0.00000, 3.54331 -1.02362 0.00000, 3.45160 -1.03570 0.00000, 3.36614 -1.07109 0.00000, 3.29276 -1.12740 0.00000, 3.23645 -1.20079 0.00000, 3.20105 -1.28625 0.00000, 3.18898 -1.37795 0.00000, 3.20105 -1.46966 0.00000, 3.23645 -1.55512 0.00000, 3.29276 -1.62850 0.00000, 3.36614 -1.68481 0.00000, 3.45160 -1.72021 0.00000, 3.54331 -1.73228 0.00000, 3.63501 -1.72021 0.00000, 3.72047 -1.68481 0.00000, 3.79386 -1.62850 0.00000, 3.85017 -1.55512 0.00000, 3.88556 -1.46966 0.00000, 3.89764 -1.37795 0.02362, 3.88556 -1.28625 0.02362, 3.85017 -1.20079 0.02362, 3.79386 -1.12740 0.02362, 3.72047 -1.07109 0.02362, 3.63501 -1.03570 0.02362, 3.54331 -1.02362 0.02362, 3.45160 -1.03570 0.02362, 3.36614 -1.07109 0.02362, 3.29276 -1.12740 0.02362, 3.23645 -1.20079 0.02362, 3.20105 -1.28625 0.02362, 3.18898 -1.37795 0.02362, 3.20105 -1.46966 0.02362, 3.23645 -1.55512 0.02362, 3.29276 -1.62850 0.02362, 3.36614 -1.68481 0.02362, 3.45160 -1.72021 0.02362, 3.54331 -1.73228 0.02362, 3.63501 -1.72021 0.02362, 3.72047 -1.68481 0.02362, 3.79386 -1.62850 0.02362, 3.85017 -1.55512 0.02362, 3.88556 -1.46966 0.02362 ] } coordIndex [ 0 1 25 24 -1 1 2 26 25 -1 2 3 27 26 -1 3 4 28 27 -1 4 5 29 28 -1 5 6 30 29 -1 6 7 31 30 -1 7 8 32 31 -1 8 9 33 32 -1 9 10 34 33 -1 10 11 35 34 -1 11 12 36 35 -1 12 13 37 36 -1 13 14 38 37 -1 14 15 39 38 -1 15 16 40 39 -1 16 17 41 40 -1 17 18 42 41 -1 18 19 43 42 -1 19 20 44 43 -1 20 21 45 44 -1 21 22 46 45 -1 22 23 47 46 -1 23 0 24 47 -1 23 22 21 20 19 18 17 16 15 14 13 12 11 10 9 8 7 6 5 4 3 2 1 0 -1 24 25 26 27 28 29 30 31 32 33 34 35 36 37 38 39 40 41 42 43 44 45 46 47 -1 ] } }
Shape { appearance Appearance { material Material { diffuseColor 0.83 0.69 0.22 specularColor 0.3 0.3 0.3 shininess 0.4 transparency 0.0 } } geometry IndexedFaceSet { solid FALSE coord Coordinate { point [ 2.71654 -1.37795 0.00000, 2.70446 -1.28625 0.00000, 2.66906 -1.20079 0.00000, 2.61275 -1.12740 0.00000, 2.53937 -1.07109 0.00000, 2.45391 -1.03570 0.00000, 2.36220 -1.02362 0.00000, 2.27050 -1.03570 0.00000, 2.18504 -1.07109 0.00000, 2.11166 -1.12740 0.00000, 2.05535 -1.20079 0.00000, 2.01995 -1.28625 0.00000, 2.00787 -1.37795 0.00000, 2.01995 -1.46966 0.00000, 2.05535 -1.55512 0.00000, 2.11166 -1.62850 0.00000, 2.18504 -1.68481 0.00000, 2.27050 -1.72021 0.00000, 2.36220 -1.73228 0.00000, 2.45391 -1.72021 0.00000, 2.53937 -1.68481 0.00000, 2.61275 -1.62850 0.00000, 2.66906 -1.55512 0.00000, 2.70446 -1.46966 0.00000, 2.71654 -1.37795 0.02362, 2.70446 -1.28625 0.02362, 2.66906 -1.20079 0.02362, 2.61275 -1.12740 0.02362, 2.53937 -1.07109 0.02362, 2.45391 -1.03570 0.02362, 2.36220 -1.02362 0.02362, 2.27050 -1.03570 0.02362, 2.18504 -1.07109 0.02362, 2.11166 -1.12740 0.02362, 2.05535 -1.20079 0.02362, 2.01995 -1.28625 0.02362, 2.00787 -1.37795 0.02362, 2.01995 -1.46966 0.02362, 2.05535 -1.55512 0.02362, 2.11166 -1.62850 0.02362, 2.18504 -1.68481 0.02362, 2.27050 -1.72021 0.02362, 2.36220 -1.73228 0.02362, 2.45391 -1.72021 0.02362, 2.53937 -1.68481 0.02362, 2.61275 -1.62850 0.02362, 2.66906 -1.55512 0.02362, 2.70446 -1.46966 0.02362 ] } coordIndex [ 0 1 25 24 -1 1 2 26 25 -1 2 3 27 26 -1 3 4 28 27 -1 4 5 29 28 -1 5 6 30 29 -1 6 7 31 30 -1 7 8 32 31 -1 8 9 33 32 -1 9 10 34 33 -1 10 11 35 34 -1 11 12 36 35 -1 12 13 37 36 -1 13 14 38 37 -1 14 15 39 38 -1 15 16 40 39 -1 16 17 41 40 -1 17 18 42 41 -1 18 19 43 42 -1 19 20 44 43 -1 20 21 45 44 -1 21 22 46 45 -1 22 23 47 46 -1 23 0 24 47 -1 23 22 21 20 19 18 17 16 15 14 13 12 11 10 9 8 7 6 5 4 3 2 1 0 -1 24 25 26 27 28 29 30 31 32 33 34 35 36 37 38 39 40 41 42 43 44 45 46 47 -1 ] } }
Shape { appearance Appearance { material Material { diffuseColor 0.83 0.69 0.22 specularColor 0.3 0.3 0.3 shininess 0.4 transparency 0.0 } } geometry IndexedFaceSet { solid FALSE coord Coordinate { point [ 1.53543 -1.37795 0.00000, 1.52336 -1.28625 0.00000, 1.48796 -1.20079 0.00000, 1.43165 -1.12740 0.00000, 1.35827 -1.07109 0.00000, 1.27281 -1.03570 0.00000, 1.18110 -1.02362 0.00000, 1.08939 -1.03570 0.00000, 1.00394 -1.07109 0.00000, 0.93055 -1.12740 0.00000, 0.87424 -1.20079 0.00000, 0.83885 -1.28625 0.00000, 0.82677 -1.37795 0.00000, 0.83885 -1.46966 0.00000, 0.87424 -1.55512 0.00000, 0.93055 -1.62850 0.00000, 1.00394 -1.68481 0.00000, 1.08939 -1.72021 0.00000, 1.18110 -1.73228 0.00000, 1.27281 -1.72021 0.00000, 1.35827 -1.68481 0.00000, 1.43165 -1.62850 0.00000, 1.48796 -1.55512 0.00000, 1.52336 -1.46966 0.00000, 1.53543 -1.37795 0.02362, 1.52336 -1.28625 0.02362, 1.48796 -1.20079 0.02362, 1.43165 -1.12740 0.02362, 1.35827 -1.07109 0.02362, 1.27281 -1.03570 0.02362, 1.18110 -1.02362 0.02362, 1.08939 -1.03570 0.02362, 1.00394 -1.07109 0.02362, 0.93055 -1.12740 0.02362, 0.87424 -1.20079 0.02362, 0.83885 -1.28625 0.02362, 0.82677 -1.37795 0.02362, 0.83885 -1.46966 0.02362, 0.87424 -1.55512 0.02362, 0.93055 -1.62850 0.02362, 1.00394 -1.68481 0.02362, 1.08939 -1.72021 0.02362, 1.18110 -1.73228 0.02362, 1.27281 -1.72021 0.02362, 1.35827 -1.68481 0.02362, 1.43165 -1.62850 0.02362, 1.48796 -1.55512 0.02362, 1.52336 -1.46966 0.02362 ] } coordIndex [ 0 1 25 24 -1 1 2 26 25 -1 2 3 27 26 -1 3 4 28 27 -1 4 5 29 28 -1 5 6 30 29 -1 6 7 31 30 -1 7 8 32 31 -1 8 9 33 32 -1 9 10 34 33 -1 10 11 35 34 -1 11 12 36 35 -1 12 13 37 36 -1 13 14 38 37 -1 14 15 39 38 -1 15 16 40 39 -1 16 17 41 40 -1 17 18 42 41 -1 18 19 43 42 -1 19 20 44 43 -1 20 21 45 44 -1 21 22 46 45 -1 22 23 47 46 -1 23 0 24 47 -1 23 22 21 20 19 18 17 16 15 14 13 12 11 10 9 8 7 6 5 4 3 2 1 0 -1 24 25 26 27 28 29 30 31 32 33 34 35 36 37 38 39 40 41 42 43 44 45 46 47 -1 ] } }
Shape { appearance Appearance { material Material { diffuseColor 0.83 0.69 0.22 specularColor 0.3 0.3 0.3 shininess 0.4 transparency 0.0 } } geometry IndexedFaceSet { solid FALSE coord Coordinate { point [ -5.74803 1.57480 0.00000, -5.76011 1.66651 0.00000, -5.79550 1.75197 0.00000, -5.85181 1.82535 0.00000, -5.92520 1.88166 0.00000, -6.01065 1.91706 0.00000, -6.10236 1.92913 0.00000, -6.19407 1.91706 0.00000, -6.27953 1.88166 0.00000, -6.35291 1.82535 0.00000, -6.40922 1.75197 0.00000, -6.44462 1.66651 0.00000, -6.45669 1.57480 0.00000, -6.44462 1.48310 0.00000, -6.40922 1.39764 0.00000, -6.35291 1.32425 0.00000, -6.27953 1.26794 0.00000, -6.19407 1.23255 0.00000, -6.10236 1.22047 0.00000, -6.01065 1.23255 0.00000, -5.92520 1.26794 0.00000, -5.85181 1.32425 0.00000, -5.79550 1.39764 0.00000, -5.76011 1.48310 0.00000, -5.74803 1.57480 0.02362, -5.76011 1.66651 0.02362, -5.79550 1.75197 0.02362, -5.85181 1.82535 0.02362, -5.92520 1.88166 0.02362, -6.01065 1.91706 0.02362, -6.10236 1.92913 0.02362, -6.19407 1.91706 0.02362, -6.27953 1.88166 0.02362, -6.35291 1.82535 0.02362, -6.40922 1.75197 0.02362, -6.44462 1.66651 0.02362, -6.45669 1.57480 0.02362, -6.44462 1.48310 0.02362, -6.40922 1.39764 0.02362, -6.35291 1.32425 0.02362, -6.27953 1.26794 0.02362, -6.19407 1.23255 0.02362, -6.10236 1.22047 0.02362, -6.01065 1.23255 0.02362, -5.92520 1.26794 0.02362, -5.85181 1.32425 0.02362, -5.79550 1.39764 0.02362, -5.76011 1.48310 0.02362 ] } coordIndex [ 0 1 25 24 -1 1 2 26 25 -1 2 3 27 26 -1 3 4 28 27 -1 4 5 29 28 -1 5 6 30 29 -1 6 7 31 30 -1 7 8 32 31 -1 8 9 33 32 -1 9 10 34 33 -1 10 11 35 34 -1 11 12 36 35 -1 12 13 37 36 -1 13 14 38 37 -1 14 15 39 38 -1 15 16 40 39 -1 16 17 41 40 -1 17 18 42 41 -1 18 19 43 42 -1 19 20 44 43 -1 20 21 45 44 -1 21 22 46 45 -1 22 23 47 46 -1 23 0 24 47 -1 23 22 21 20 19 18 17 16 15 14 13 12 11 10 9 8 7 6 5 4 3 2 1 0 -1 24 25 26 27 28 29 30 31 32 33 34 35 36 37 38 39 40 41 42 43 44 45 46 47 -1 ] } }
Shape { appearance Appearance { material Material { diffuseColor 0.75 0.75 0.78 specularColor 0.3 0.3 0.3 shininess 0.4 transparency 0.0 } } geometry IndexedFaceSet { solid FALSE coord Coordinate { point [ -3.14961 -0.39370 0.00000, -3.17644 -0.18991 0.00000, -3.25510 -0.00000 0.00000, -3.38023 0.16308 0.00000, -3.54331 0.28821 0.00000, -3.73321 0.36687 0.00000, -3.93701 0.39370 0.00000, -4.14080 0.36687 0.00000, -4.33071 0.28821 0.00000, -4.49378 0.16308 0.00000, -4.61892 -0.00000 0.00000, -4.69758 -0.18991 0.00000, -4.72441 -0.39370 0.00000, -4.69758 -0.59750 0.00000, -4.61892 -0.78740 0.00000, -4.49378 -0.95048 0.00000, -4.33071 -1.07561 0.00000, -4.14080 -1.15427 0.00000, -3.93701 -1.18110 0.00000, -3.73321 -1.15427 0.00000, -3.54331 -1.07561 0.00000, -3.38023 -0.95048 0.00000, -3.25510 -0.78740 0.00000, -3.17644 -0.59750 0.00000, -3.14961 -0.39370 0.39370, -3.17644 -0.18991 0.39370, -3.25510 -0.00000 0.39370, -3.38023 0.16308 0.39370, -3.54331 0.28821 0.39370, -3.73321 0.36687 0.39370, -3.93701 0.39370 0.39370, -4.14080 0.36687 0.39370, -4.33071 0.28821 0.39370, -4.49378 0.16308 0.39370, -4.61892 -0.00000 0.39370, -4.69758 -0.18991 0.39370, -4.72441 -0.39370 0.39370, -4.69758 -0.59750 0.39370, -4.61892 -0.78740 0.39370, -4.49378 -0.95048 0.39370, -4.33071 -1.07561 0.39370, -4.14080 -1.15427 0.39370, -3.93701 -1.18110 0.39370, -3.73321 -1.15427 0.39370, -3.54331 -1.07561 0.39370, -3.38023 -0.95048 0.39370, -3.25510 -0.78740 0.39370, -3.17644 -0.59750 0.39370 ] } coordIndex [ 0 1 25 24 -1 1 2 26 25 -1 2 3 27 26 -1 3 4 28 27 -1 4 5 29 28 -1 5 6 30 29 -1 6 7 31 30 -1 7 8 32 31 -1 8 9 33 32 -1 9 10 34 33 -1 10 11 35 34 -1 11 12 36 35 -1 12 13 37 36 -1 13 14 38 37 -1 14 15 39 38 -1 15 16 40 39 -1 16 17 41 40 -1 17 18 42 41 -1 18 19 43 42 -1 19 20 44 43 -1 20 21 45 44 -1 21 22 46 45 -1 22 23 47 46 -1 23 0 24 47 -1 23 22 21 20 19 18 17 16 15 14 13 12 11 10 9 8 7 6 5 4 3 2 1 0 -1 24 25 26 27 28 29 30 31 32 33 34 35 36 37 38 39 40 41 42 43 44 45 46 47 -1 ] } }
Shape { appearance Appearance { material Material { diffuseColor 0.62 0.64 0.66 specularColor 0.3 0.3 0.3 shininess 0.4 transparency 0.0 } } geometry IndexedFaceSet { solid FALSE coord Coordinate { point [ 10.62992 0.00000 0.59055, 10.57626 0.40759 0.59055, 10.41894 0.78740 0.59055, 10.16867 1.11355 0.59055, 9.84252 1.36382 0.59055, 9.46271 1.52114 0.59055, 9.05512 1.57480 0.59055, 8.64753 1.52114 0.59055, 8.26772 1.36382 0.59055, 7.94156 1.11355 0.59055, 7.69130 0.78740 0.59055, 7.53398 0.40759 0.59055, 7.48031 0.00000 0.59055, 7.53398 -0.40759 0.59055, 7.69130 -0.78740 0.59055, 7.94156 -1.11355 0.59055, 8.26772 -1.36382 0.59055, 8.64753 -1.52114 0.59055, 9.05512 -1.57480 0.59055, 9.46271 -1.52114 0.59055, 9.84252 -1.36382 0.59055, 10.16867 -1.11355 0.59055, 10.41894 -0.78740 0.59055, 10.57626 -0.40759 0.59055, 10.62992 0.00000 -6.49606, 10.57626 0.40759 -6.49606, 10.41894 0.78740 -6.49606, 10.16867 1.11355 -6.49606, 9.84252 1.36382 -6.49606, 9.46271 1.52114 -6.49606, 9.05512 1.57480 -6.49606, 8.64753 1.52114 -6.49606, 8.26772 1.36382 -6.49606, 7.94156 1.11355 -6.49606, 7.69130 0.78740 -6.49606, 7.53398 0.40759 -6.49606, 7.48031 0.00000 -6.49606, 7.53398 -0.40759 -6.49606, 7.69130 -0.78740 -6.49606, 7.94156 -1.11355 -6.49606, 8.26772 -1.36382 -6.49606, 8.64753 -1.52114 -6.49606, 9.05512 -1.57480 -6.49606, 9.46271 -1.52114 -6.49606, 9.84252 -1.36382 -6.49606, 10.16867 -1.11355 -6.49606, 10.41894 -0.78740 -6.49606, 10.57626 -0.40759 -6.49606 ] } coordIndex [ 0 1 25 24 -1 1 2 26 25 -1 2 3 27 26 -1 3 4 28 27 -1 4 5 29 28 -1 5 6 30 29 -1 6 7 31 30 -1 7 8 32 31 -1 8 9 33 32 -1 9 10 34 33 -1 10 11 35 34 -1 11 12 36 35 -1 12 13 37 36 -1 13 14 38 37 -1 14 15 39 38 -1 15 16 40 39 -1 16 17 41 40 -1 17 18 42 41 -1 18 19 43 42 -1 19 20 44 43 -1 20 21 45 44 -1 21 22 46 45 -1 22 23 47 46 -1 23 0 24 47 -1 23 22 21 20 19 18 17 16 15 14 13 12 11 10 9 8 7 6 5 4 3 2 1 0 -1 24 25 26 27 28 29 30 31 32 33 34 35 36 37 38 39 40 41 42 43 44 45 46 47 -1 ] } }
Shape { appearance Appearance { material Material { diffuseColor 0.62 0.64 0.66 specularColor 0.3 0.3 0.3 shininess 0.4 transparency 0.0 } } geometry IndexedFaceSet { solid FALSE coord Coordinate { point [ -7.48031 0.00000 0.59055, -7.53398 0.40759 0.59055, -7.69130 0.78740 0.59055, -7.94156 1.11355 0.59055, -8.26772 1.36382 0.59055, -8.64753 1.52114 0.59055, -9.05512 1.57480 0.59055, -9.46271 1.52114 0.59055, -9.84252 1.36382 0.59055, -10.16867 1.11355 0.59055, -10.41894 0.78740 0.59055, -10.57626 0.40759 0.59055, -10.62992 0.00000 0.59055, -10.57626 -0.40759 0.59055, -10.41894 -0.78740 0.59055, -10.16867 -1.11355 0.59055, -9.84252 -1.36382 0.59055, -9.46271 -1.52114 0.59055, -9.05512 -1.57480 0.59055, -8.64753 -1.52114 0.59055, -8.26772 -1.36382 0.59055, -7.94156 -1.11355 0.59055, -7.69130 -0.78740 0.59055, -7.53398 -0.40759 0.59055, -7.48031 0.00000 -6.49606, -7.53398 0.40759 -6.49606, -7.69130 0.78740 -6.49606, -7.94156 1.11355 -6.49606, -8.26772 1.36382 -6.49606, -8.64753 1.52114 -6.49606, -9.05512 1.57480 -6.49606, -9.46271 1.52114 -6.49606, -9.84252 1.36382 -6.49606, -10.16867 1.11355 -6.49606, -10.41894 0.78740 -6.49606, -10.57626 0.40759 -6.49606, -10.62992 0.00000 -6.49606, -10.57626 -0.40759 -6.49606, -10.41894 -0.78740 -6.49606, -10.16867 -1.11355 -6.49606, -9.84252 -1.36382 -6.49606, -9.46271 -1.52114 -6.49606, -9.05512 -1.57480 -6.49606, -8.64753 -1.52114 -6.49606, -8.26772 -1.36382 -6.49606, -7.94156 -1.11355 -6.49606, -7.69130 -0.78740 -6.49606, -7.53398 -0.40759 -6.49606 ] } coordIndex [ 0 1 25 24 -1 1 2 26 25 -1 2 3 27 26 -1 3 4 28 27 -1 4 5 29 28 -1 5 6 30 29 -1 6 7 31 30 -1 7 8 32 31 -1 8 9 33 32 -1 9 10 34 33 -1 10 11 35 34 -1 11 12 36 35 -1 12 13 37 36 -1 13 14 38 37 -1 14 15 39 38 -1 15 16 40 39 -1 16 17 41 40 -1 17 18 42 41 -1 18 19 43 42 -1 19 20 44 43 -1 20 21 45 44 -1 21 22 46 45 -1 22 23 47 46 -1 23 0 24 47 -1 23 22 21 20 19 18 17 16 15 14 13 12 11 10 9 8 7 6 5 4 3 2 1 0 -1 24 25 26 27 28 29 30 31 32 33 34 35 36 37 38 39 40 41 42 43 44 45 46 47 -1 ] } }
